<?xml version="1.0" standalone="no"?>
<!DOCTYPE svg PUBLIC "-//W3C//DTD SVG 1.1//EN" "http://www.w3.org/Graphics/SVG/1.1/DTD/svg11.dtd" >
<svg xmlns="http://www.w3.org/2000/svg">
<metadata></metadata>
<defs>
<font id="gilliesnormal" horiz-adv-x="815" >
<font-face units-per-em="2048" ascent="1638" descent="-410" />
<missing-glyph horiz-adv-x="385" />
<glyph horiz-adv-x="2048" />
<glyph horiz-adv-x="2048" />
<glyph unicode="&#xd;" horiz-adv-x="0" />
<glyph unicode=" "  horiz-adv-x="385" />
<glyph unicode="&#x09;" horiz-adv-x="385" />
<glyph unicode="&#xa0;" horiz-adv-x="385" />
<glyph unicode="!" horiz-adv-x="733" d="M33 96q0 55 37 102.5t106 47.5q32 0 68 -16t60 -51t24 -83q0 -74 -41.5 -114.5t-104.5 -40.5q-58 0 -103.5 47t-45.5 108zM174 311l356 944l191 23l-348 -930z" />
<glyph unicode="&#x22;" horiz-adv-x="848" d="M289 1188l61 117h-18l57 96h148l-152 -213h-96zM532 1184l62 116h-19l56 99h147l-149 -215h-97z" />
<glyph unicode="#" horiz-adv-x="1567" d="M59 391l54 158l204 -4l101 237l-232 2l60 160h233l146 365l182 61l-160 -426h451l153 373l183 61l-160 -434h225l-45 -151l-233 -2l-101 -246l250 4q0 -7 -24.5 -64t-40.5 -94h-244l-141 -373l-191 -65l154 438h-443l-153 -377l-189 -69l158 446h-197zM508 553h436 l86 229h-436z" />
<glyph unicode="$" horiz-adv-x="987" d="M29 98l47 164q5 0 91 -22.5t107 -22.5l119 320q0 7 -40 35t-78 63t-67.5 89t-29.5 122q0 132 90 202.5t186 90.5t177 24l55 109l180 2l-47 -127q11 -8 53.5 -18.5t63.5 -18t39 -25.5l-62 -159q-40 9 -88.5 17t-74.5 11l-123 -307q0 -15 47 -49.5t71 -53.5t51 -69t27 -129 q0 -143 -66.5 -219.5t-152 -99.5t-168.5 -23h-49l-68 -143h-172l64 174q-86 8 -182 63zM369 856q0 -32 31 -70.5t71 -44.5l82 217l-59 3q-34 -7 -79.5 -34.5t-45.5 -70.5zM461 199h22q53 0 101.5 31t48.5 94q0 71 -88 116z" />
<glyph unicode="%" horiz-adv-x="1589" d="M90 954q0 125 66 228t161.5 161t171.5 58q67 0 122 -35.5t87.5 -97t32.5 -133.5q0 -115 -64.5 -216.5t-159 -161t-175.5 -59.5q-33 0 -73.5 13.5t-79 42t-64 80t-25.5 120.5zM109 -61l1126 1359l213 56l-1133 -1362q-51 -13 -102.5 -26.5t-103.5 -26.5zM244 967 q0 -40 26.5 -70.5t65.5 -30.5q71 0 126 53t85.5 124t30.5 118q0 38 -31 55t-72 17q-72 0 -123.5 -55.5t-79.5 -121.5t-28 -89zM891 221q0 125 65.5 227.5t161 161t176.5 58.5q63 0 118 -33t88.5 -94.5t33.5 -139.5q0 -90 -60 -194.5t-153 -174t-184 -69.5q-38 0 -94 18 t-104 76t-48 164zM1044 231q0 -29 28 -63.5t69 -34.5q53 0 98 32.5t76 81t48 98t17 83.5q0 38 -31.5 56t-72.5 18q-49 0 -103.5 -49.5t-91.5 -114.5t-37 -107z" />
<glyph unicode="&#x26;" horiz-adv-x="1341" d="M43 160q0 68 70.5 135t183.5 150t113 104q0 1 -31 74t-31 120q0 79 60.5 155.5t155 137.5t197.5 96t187 35q101 0 172.5 -49t71.5 -129q0 -67 -54 -147t-126.5 -140t-114.5 -71l-180 69q12 17 96.5 74.5t133 100.5t48.5 81q0 37 -51 37q-54 0 -152.5 -41.5t-171.5 -103 t-73 -123.5q0 -24 49 -97.5t49 -113.5q0 -45 -39 -73t-164 -106t-166 -126q0 -15 5 -18t22 -3h498q35 0 57.5 11.5t38 35.5t31.5 70h-156l68 166l481 2l-43 -160l-125 -2q-27 -67 -51 -125.5t-64 -99.5t-122 -64.5t-224 -23.5h-473q-64 0 -120 49t-56 113z" />
<glyph unicode="'" horiz-adv-x="575" d="M289 1188l61 117h-18l57 96h148l-152 -213h-96z" />
<glyph unicode="(" horiz-adv-x="913" d="M-18 -395q12 255 46 467t110.5 424.5t215.5 438t355 466.5h161q-43 -43 -137 -160t-229.5 -350.5t-244.5 -559.5t-132 -698v-213l-139 -8q-6 31 -6 193z" />
<glyph unicode=")" horiz-adv-x="913" d="M-403 -563q99 125 178 224.5t147.5 201t137 238t135.5 321.5q69 188 101 343.5t39 263.5t7 222t6 150h137v-305q0 -300 -89.5 -587t-215 -512t-243 -376t-168.5 -186z" />
<glyph unicode="*" horiz-adv-x="823" d="M180 1098q0 57 117 57q26 0 80 -4q-10 20 -30 52t-30 54.5t-10 49.5q0 31 33.5 56.5t62.5 25.5q32 0 48 -13.5t24 -60.5q4 -23 5.5 -47.5t11.5 -50.5q81 94 122 126.5t91 32.5q9 0 22.5 -7.5t13.5 -12.5q0 -1 6.5 -19.5t6.5 -33.5q0 -17 -9 -25q-17 -16 -75 -56t-80 -71 q15 -3 82.5 -11.5t97 -20.5t29.5 -38q0 -8 -13 -27.5t-20 -19.5q5 0 -82 9.5t-106 9.5q15 -24 62.5 -79t47.5 -73q0 -9 -20 -29t-29 -20q-54 0 -123 94q-5 9 -20.5 22t-16.5 15q-4 -6 -30 -53t-35 -58q-19 -19 -33.5 -25.5t-36.5 -6.5q-30 0 -51 9.5t-21 27.5q0 16 38 67.5 t59 83.5q-17 -4 -70 -10t-74 -6t-33 30t-12 56z" />
<glyph unicode="+" horiz-adv-x="940" d="M98 489l62 154h241l2 227l150 72v-299h301l-72 -149l-229 -2v-244l-154 -62l2 306z" />
<glyph unicode="," horiz-adv-x="471" d="M61 -178q19 31 46.5 82t27.5 67q0 4 -20 24.5t-34.5 50.5t-14.5 73q0 61 47 108t106 47q51 0 99.5 -51t48.5 -125q0 -39 -25.5 -96t-60 -109t-56.5 -71h-164z" />
<glyph unicode="-" horiz-adv-x="678" d="M98 489l62 154h434l-74 -149z" />
<glyph unicode="." horiz-adv-x="453" d="M59 125q0 60 42.5 105.5t105.5 45.5q73 0 114 -44.5t41 -114.5q0 -68 -42 -111t-107 -43q-57 0 -105.5 42t-48.5 120z" />
<glyph unicode="/" horiz-adv-x="1677" d="M-4 -12q6 4 265.5 250t635.5 601t533 504l227 58l-1432 -1358z" />
<glyph unicode="0" horiz-adv-x="1147" d="M59 393q0 131 47 260.5t132.5 233t202.5 163.5t253 60q71 0 162 -34t161 -125.5t70 -248.5q0 -189 -89 -354.5t-229.5 -264.5t-287.5 -99q-123 0 -219 50.5t-149.5 144.5t-53.5 214zM233 412q0 -92 47 -150t109 -82t107 -24q86 0 163.5 52.5t138 139.5t92.5 173t32 153 q0 66 -35.5 127t-96 97t-128.5 36q-92 0 -172.5 -50.5t-138 -132.5t-88 -173.5t-30.5 -165.5z" />
<glyph unicode="1" horiz-adv-x="719" d="M29 -16l399 1097l209 11q0 -1 -73.5 -192t-111.5 -287.5t-127 -323.5t-116 -295z" />
<glyph unicode="2" horiz-adv-x="1227" d="M4 -47l160 184q20 1 44.5 2.5t64 15t89.5 44.5q109 63 247.5 171t239.5 224.5t101 196.5q0 60 -34.5 88t-92.5 28q-82 0 -172.5 -47t-194.5 -123t-130 -88l4 203q4 10 60 50t128.5 80.5t159.5 71.5t158 31q86 0 155 -35.5t107.5 -99t38.5 -143.5q0 -107 -56.5 -205.5 t-137 -177t-157.5 -137t-149 -113.5h430l-74 -176h-737l-250 -80z" />
<glyph unicode="3" horiz-adv-x="1079" d="M43 236q37 -9 75 -19.5t80 -18.5t96.5 -12t129.5 -4q129 0 214 24.5t85 110.5q0 97 -68.5 127.5t-183.5 30.5q-34 0 -53.5 -0.5t-42.5 -1.5l102 189q6 -1 20.5 -1.5t34.5 -1.5q110 0 203.5 33t93.5 123q0 67 -184 70q-81 0 -169 -6.5t-122 -6.5l70 172q37 7 72.5 13 t107.5 6q94 0 172 -15.5t133 -45.5t85 -76.5t30 -110.5q0 -71 -30.5 -126.5t-80 -91.5t-102.5 -50q12 -23 40 -54t43 -65.5t15 -101.5q0 -181 -132 -259.5t-324 -78.5q-63 0 -126 4t-110.5 11.5t-66 13.5t-58.5 24z" />
<glyph unicode="4" horiz-adv-x="1231" d="M90 238l47 168l889 659h158l-256 -651h141l-55 -178h-156l-80 -238l-221 -39l113 279h-580zM436 414h307l123 295q0 18 -37 18z" />
<glyph unicode="5" horiz-adv-x="1047" d="M59 178q90 -16 187 -16q62 0 182.5 30.5t217.5 90.5t97 143q0 42 -40.5 56t-106.5 14q-80 0 -136 -12t-97 -30.5t-64 -25.5l-66 121l197 524q65 0 178.5 1t226.5 2t177 1l-47 -178h-414l-98 -244q19 5 94.5 11t95.5 6q136 0 209.5 -62t73.5 -172q0 -98 -56.5 -181.5 t-153.5 -143.5t-224.5 -93.5t-258.5 -33.5q-64 0 -89 3t-52 3z" />
<glyph unicode="6" horiz-adv-x="936" d="M59 260q0 151 114 344t256 355t226 237l140 -7.5t88 -6.5q-8 -11 -87 -94.5t-133.5 -142.5t-111 -128.5t-80.5 -118.5q42 14 48 16.5t34 2.5q115 0 176.5 -66t61.5 -168q0 -128 -68 -244.5t-175 -185.5t-218 -69q-134 0 -202.5 81t-68.5 195zM233 274q0 -53 35 -92 t82 -39q40 0 102 55t109 134t47 143q0 43 -33.5 74t-74.5 31q-63 0 -123.5 -56.5t-100.5 -130.5t-43 -119z" />
<glyph unicode="7" horiz-adv-x="1006" d="M135 -59q0 29 47.5 128t124 238t170 293.5t162.5 257.5l-500 -12l70 192l766 11q-39 -70 -159.5 -259.5t-197.5 -314.5t-147 -254.5t-96 -216.5z" />
<glyph unicode="8" horiz-adv-x="1065" d="M61 299q3 85 38 143t85 93t116 64.5t81 39.5q-1 1 -37.5 69t-36.5 101q0 53 29.5 103t83.5 92.5t121 66t139 23.5q88 0 164.5 -30t122 -88.5t45.5 -141.5q0 -78 -28 -129t-72.5 -83.5t-83.5 -48t-62 -24.5q1 -2 31 -43.5t46.5 -86.5t16.5 -108q0 -60 -28 -118.5 t-83.5 -105.5t-139 -76t-181.5 -29q-157 0 -262 86.5t-105 230.5zM225 319q0 -65 66.5 -115t144.5 -50q67 0 124.5 20t92.5 58t35 87q0 50 -31 86.5t-80.5 55t-105.5 18.5q-94 0 -148.5 -34.5t-76 -73.5t-21.5 -52zM477 807q0 -49 46 -88t104 -39q97 0 164 46t67 101 q0 35 -31.5 59.5t-75 36t-77.5 11.5q-85 0 -141 -40.5t-56 -86.5z" />
<glyph unicode="9" horiz-adv-x="936" d="M72 0l370 428q-20 -2 -62.5 -6t-49.5 -4q-86 3 -150.5 74.5t-64.5 183.5q0 104 46 194.5t117.5 158t153 105t148.5 37.5q81 0 143 -38.5t96.5 -103.5t34.5 -144q0 -112 -74 -257t-180.5 -285t-201.5 -244.5t-146 -151.5zM295 696q0 -60 36.5 -101.5t86.5 -41.5 q52 0 112 53.5t102 130t42 133.5q0 49 -33 87t-90 38q-59 0 -118 -57t-98.5 -131.5t-39.5 -110.5z" />
<glyph unicode=":" horiz-adv-x="608" d="M59 125q0 60 42.5 105.5t105.5 45.5q73 0 114 -44.5t41 -114.5q0 -68 -42 -111t-107 -43q-57 0 -105.5 42t-48.5 120zM195 467q0 43 26 80t62 58.5t59 21.5q48 0 86 -26.5t59 -65.5t21 -72q0 -66 -51.5 -111t-102.5 -45q-68 0 -113.5 56.5t-45.5 103.5z" />
<glyph unicode=";" horiz-adv-x="608" d="M61 -178q19 31 46.5 82t27.5 67q0 4 -20 24.5t-34.5 50.5t-14.5 73q0 61 47 108t106 47q51 0 99.5 -51t48.5 -125q0 -39 -25.5 -96t-60 -109t-56.5 -71h-164zM203 473q0 64 43 109t106 45q43 0 79.5 -23t57.5 -60.5t21 -78.5q0 -57 -39 -104.5t-111 -47.5 q-63 0 -110 44.5t-47 115.5z" />
<glyph unicode="&#x3c;" horiz-adv-x="895" d="M84 317q0 21 4 33q17 58 43.5 92t77.5 66l610 377q-11 -46 -27 -128t-16 -112l-409 -229q-6 -5 -20.5 -14t-22.5 -15q0 -15 6.5 -21.5t19.5 -9.5l340 -153l-45 -226l-432 199q-55 20 -92 56t-37 85z" />
<glyph unicode="=" horiz-adv-x="752" d="M37 152l61 153h527l-74 -149zM129 428l61 154h527l-74 -150z" />
<glyph unicode="&#x3e;" horiz-adv-x="895" d="M76 -74q11 47 27 128t16 112l407 229q3 2 21 13.5t22 15.5q0 24 -24 31l-340 153l45 226l430 -197q52 -16 91.5 -54.5t39.5 -88.5q0 -21 -4 -33q-16 -54 -42 -87.5t-79 -68.5z" />
<glyph unicode="?" horiz-adv-x="1018" d="M35 92q0 64 46 112t101 48q59 0 104.5 -44t45.5 -118q0 -40 -19 -75t-53.5 -55.5t-71.5 -20.5q-65 0 -109 57.5t-44 95.5zM147 313q0 123 81 234t194.5 210.5t222.5 199t109 155.5q0 66 -62 66q-53 0 -128.5 -33t-141.5 -71.5t-149.5 -93.5t-88.5 -58l19 227 q-5 0 82.5 57.5t198 103.5t214.5 46q88 0 148.5 -29t89.5 -77t29 -103q0 -94 -71 -184t-218 -219t-222.5 -207.5t-103.5 -169.5z" />
<glyph unicode="@" horiz-adv-x="1651" d="M66 692q0 197 96 369t267 274.5t382 102.5q247 -13 416.5 -98.5t169.5 -278.5q0 -115 -82.5 -162t-194.5 -47q-132 0 -244 -47.5t-176.5 -115.5t-64.5 -126q0 -35 16.5 -48t50.5 -13q63 0 98 37.5t64 112.5t41 93l180 27q-23 -44 -58.5 -118.5t-35.5 -94.5q0 -31 14 -41 t44 -10h96l-62 -154h-114q-57 0 -82.5 11.5t-36 28t-16.5 16.5q3 0 -12 -17.5t-53 -31t-110 -13.5q-106 0 -157 40t-51 130q0 101 87.5 220t247.5 200.5t363 81.5q25 0 44 16t19 43q0 56 -88 113q-137 90 -313 90q-122 0 -228.5 -45.5t-189 -128t-127.5 -191t-45 -225.5 q0 -160 79 -295.5t214.5 -215t296.5 -79.5q154 0 286.5 75.5t211.5 203.5l129 -92q-100 -155 -267 -249.5t-360 -94.5q-202 0 -373.5 100.5t-271.5 273t-100 373.5z" />
<glyph unicode="A" horiz-adv-x="1536" d="M-4 342l100 199l217 4q17 94 109 238t227.5 285.5t287 236t277.5 94.5q75 0 124 -26.5t78.5 -73.5t41.5 -105t12 -125q0 -130 -62 -351t-143 -431t-126 -287l-248 -2l145 344h-528q-21 -26 -25 -43.5t-4 -77.5q0 -75 7 -140t19.5 -121.5t26 -104t13.5 -50.5 q-53 8 -106.5 16.5t-106.5 16.5q-5 27 -18.5 69t-23 82t-18.5 124q0 155 4 229h-280zM547 545l551 4q29 42 66 133t62 193.5t25 179.5q0 50 -24.5 83t-67.5 33q-71 0 -183 -88t-227.5 -232.5t-201.5 -305.5z" />
<glyph unicode="B" horiz-adv-x="1372" d="M-92 -2l137 201h578q32 0 49.5 17.5t17.5 45.5q0 26 -23 75t-61.5 121.5t-38.5 82.5q0 2 83.5 89t164 176t146 183t65.5 141q0 37 -18 45.5t-54 8.5q-90 0 -182.5 -97t-173 -241t-138.5 -284.5t-89 -239.5q-51 -13 -136 -33.5t-104 -20.5q20 112 86.5 295.5t181.5 383 t270 334t335 134.5q128 0 198 -63t70 -176q0 -85 -55 -186.5t-131.5 -195t-164 -185t-92.5 -97.5q8 -31 39.5 -84t49.5 -98.5t18 -112.5q0 -116 -75 -167.5t-191 -51.5h-762z" />
<glyph unicode="C" horiz-adv-x="1485" d="M59 324q0 133 107.5 324.5t282 373.5t374.5 298t379 116q64 0 119.5 -28t89 -77.5t33.5 -111.5q0 -112 -87.5 -243t-217 -251.5t-239.5 -195t-140 -74.5q-1 0 -59 13.5t-103.5 23.5t-71.5 16q13 17 149 116.5t250.5 190t206 188t91.5 160.5q0 64 -82 64 q-68 0 -215.5 -91.5t-297.5 -228t-256.5 -291.5t-107.5 -278q0 -85 49 -111t103 -26h604l-154 -201h-479q-328 0 -328 324z" />
<glyph unicode="D" horiz-adv-x="1548" d="M43 78q0 43 68.5 232.5t136.5 361t102 254.5l240 69l-309 -745q4 -6 4 -14q0 -11 28 -11q54 2 212.5 77t339 199.5t306 276.5t125.5 301q0 83 -36.5 106t-98.5 23q-109 0 -348.5 -68t-434.5 -135.5t-286 -101.5l51 223q77 31 251 94.5t408 127t394 63.5q322 0 322 -301 q0 -190 -144 -389.5t-368 -369.5t-455 -272t-385 -102q-57 0 -90 26t-33 75z" />
<glyph unicode="E" horiz-adv-x="1505" d="M-12 184q0 75 91 154t245 186t161 133q-7 26 -29 70.5t-33 78t-11 77.5q0 109 74 205.5t195.5 172.5t247 117t220.5 41q57 0 110 -14t99 -43.5t72 -71.5t26 -94q0 -119 -154.5 -248t-273.5 -192l-178 96q32 31 91.5 72.5t131.5 93t108 89t36 71.5q0 20 -20 38.5t-58 18.5 q-42 0 -171 -56t-232 -135t-103 -155q0 -46 16.5 -76.5t59.5 -101t43 -97.5q0 -38 -65 -85t-243 -164.5t-178 -139.5q0 -16 3.5 -23t15.5 -7l993 2l-72 -197h-989q-74 0 -151.5 36t-77.5 148z" />
<glyph unicode="F" horiz-adv-x="1536" d="M43 1137q0 82 67 135t163.5 79.5t187 36t147.5 9.5l989 2l-81 -203h-299l-209 -516h237l-80 -207h-233l-178 -432l-250 -53l180 483h-186l65 201q51 1 101.5 1.5t101.5 0.5l211 516h-438q-66 -5 -165.5 -26t-99.5 -70q0 -13 28 -44.5t80.5 -80.5t70.5 -66l-195 -69 q-26 9 -79 58.5t-94.5 115.5t-41.5 129z" />
<glyph unicode="G" horiz-adv-x="1530" d="M43 258q0 173 124.5 375t320.5 380.5t404 288t359 109.5q72 0 129 -28t88 -77.5t31 -109.5q0 -63 -73 -162t-163 -190.5t-169 -163t-111 -98.5l-174 92q29 25 97.5 87.5t148.5 140t145.5 153t65.5 104.5q0 28 -12.5 35.5t-39.5 7.5q-97 0 -261.5 -97.5t-332.5 -250 t-277.5 -310.5t-109.5 -270q0 -82 44 -116.5t102 -34.5q170 0 418 172q50 76 110 194l328 50q-12 -102 -260 -375q-7 -12 -44 -102t-87.5 -192t-139.5 -232t-206 -252l-203 63q54 59 134 163t153 216.5t106 196.5q-42 -21 -89.5 -45t-114 -44t-134.5 -20q-153 0 -230 98.5 t-77 243.5z" />
<glyph unicode="H" horiz-adv-x="1393" d="M-74 338l125 190h207l297 736l258 73l-307 -798h338l368 923l250 74l-676 -1739l-251 -61l227 602h-336l-137 -348l-258 -76l149 424h-254z" />
<glyph unicode="I" horiz-adv-x="1434" d="M-106 -2l118 203l434 -2q109 0 188.5 30.5t132.5 82t90.5 117.5t76.5 159q75 177 119 281t70 166t33 89.5t7 51.5q-3 9 -10.5 21.5t-22.5 12.5q-31 0 -127.5 -49.5t-189.5 -115.5t-164 -146t-71 -145q0 -52 37.5 -121t62.5 -105l-154 -143q-37 56 -93 166t-56 197 q0 117 91 235.5t231 218t276.5 157.5t218.5 58q100 0 148.5 -52.5t48.5 -129.5q0 -67 -35.5 -184t-96 -260t-133.5 -290.5t-153 -287.5q-36 -60 -115.5 -108.5t-184 -77.5t-210.5 -29h-567z" />
<glyph unicode="J" horiz-adv-x="1165" d="M-158 -453q1 90 74.5 175.5t165 150t247.5 162t210 141.5q1 2 47 120.5t133 345.5t134.5 358t47.5 151q0 13 -17 23t-32 10q-10 0 -97 -38t-194.5 -100.5t-181.5 -134.5t-74 -143q0 -83 50.5 -236t84.5 -237l-227 80q-11 28 -35 95.5t-45.5 153.5t-21.5 154 q0 118 93.5 231.5t236.5 205t275.5 144t198.5 52.5q113 0 164 -58t51 -145q0 -85 -66.5 -267.5t-172 -448t-105.5 -297.5h111l49 -195h-229q-58 -156 -104.5 -257.5t-113 -190.5t-166 -145t-229.5 -56q-103 0 -182.5 56t-79.5 140zM59 -422q0 -39 52 -39q61 0 125.5 42 t113.5 116.5t66 167.5q-72 -32 -154 -96.5t-142.5 -123t-60.5 -67.5z" />
<glyph unicode="K" horiz-adv-x="1290" d="M0 0l532 1354l238 61l-551 -1415h-219zM449 532q0 43 95 134t326.5 292t376.5 338l240 -39l-801 -753l401 -504h-258q-194 212 -287 334.5t-93 197.5z" />
<glyph unicode="L" horiz-adv-x="1372" d="M-272 -274l120 276l355 168q17 37 66 157t77 189t86 219q44 117 150.5 274.5t247.5 272.5t288 115q109 0 153 -51t46 -125q0 -91 -44.5 -193t-103 -185.5t-103.5 -134.5t-65 -71h-233q36 45 107.5 139t146 209t74.5 156q0 28 -27 28q-84 0 -180 -106t-182 -265.5 t-152.5 -325t-91.5 -261.5h325q89 0 203 -9.5t133 -27.5l-123 -176h-688q-52 -46 -159 -111.5t-214.5 -113t-162.5 -47.5h-49z" />
<glyph unicode="M" horiz-adv-x="1853" d="M-88 -63q10 14 105 123.5t223 265t331 419.5q150 196 209 276.5t101.5 142t73 108.5t55.5 84l237 35l-301 -846q68 73 152.5 173t209.5 253.5t200.5 245t113.5 133.5l233 55q-2 -8 -99.5 -208t-172.5 -360.5t-143 -336t-68 -246.5q0 -54 36.5 -72t96.5 -18h51l-106 -166 q-101 0 -160.5 11t-97.5 54.5t-41 137.5q0 48 11 99.5t33 120t44.5 124t58.5 147.5q-40 -34 -114.5 -126t-168.5 -216.5t-164.5 -218t-117.5 -147.5h-184q0 1 46.5 124t106.5 277t100.5 258.5t59.5 155.5q-46 -74 -148 -208t-198.5 -254.5t-190.5 -231.5t-147 -168h-266z " />
<glyph unicode="N" horiz-adv-x="1741" d="M-68 0q14 23 57 64t113.5 116t178 207t299.5 393q252 344 383 578l227 41q-18 -48 -54.5 -149t-96.5 -287t-98 -347.5t-38 -259.5q0 -22 6 -37q297 260 711 1104l131 -190q0 -9 -30 -76.5t-75 -154.5t-113 -203.5t-151 -235.5q-47 -66 -123.5 -163.5t-157.5 -186 t-161.5 -151t-136.5 -62.5q-45 0 -67.5 22t-29 61.5t-6.5 106.5q0 135 13.5 221t38.5 183.5t32 134.5q-20 -32 -64 -102.5t-109 -159.5t-167.5 -211t-230.5 -256h-281z" />
<glyph unicode="O" horiz-adv-x="1622" d="M59 514q0 166 86.5 326t226 287t297 200.5t294.5 73.5q141 0 235 -53.5t143 -124.5t69 -130.5t20 -68.5h129l49 -215h-172q-40 -180 -174 -373t-324.5 -320.5t-390.5 -127.5q-28 0 -99 15.5t-162.5 67.5t-159 160.5t-67.5 282.5zM256 502q0 -78 40 -148t108.5 -113.5 t146.5 -43.5q142 0 264 78.5t205.5 186.5t132.5 206t49 123q-12 11 -53.5 22t-64 21t-41.5 43.5t-19 97.5q0 29 6 53t18.5 46.5t25.5 45.5t24 45q-5 2 -28.5 13.5t-47.5 15.5t-59 4q-137 0 -265.5 -74.5t-228.5 -190.5t-156.5 -234.5t-56.5 -196.5z" />
<glyph unicode="P" horiz-adv-x="1556" d="M-45 -10q34 59 160.5 247.5t211 330.5t147.5 299.5t63 291.5q0 41 -33 51q-23 0 -55.5 -0.5t-71.5 -1.5l-68 191h312q60 0 100.5 -25t40.5 -121q0 -67 -28 -153.5t-34 -128.5q17 12 99.5 99.5t155.5 154t168.5 120.5t189.5 54q76 0 125 -37t70.5 -95t21.5 -126 q0 -90 -40 -228t-120.5 -270t-209.5 -222.5t-298 -90.5h-221q-14 29 -43 83.5t-51 86.5l-324 -488zM584 541h307q116 0 213 108.5t154 247t57 203.5q0 20 -9.5 47t-43.5 27q-57 0 -164 -88t-213.5 -202t-199.5 -224t-101 -119z" />
<glyph unicode="Q" horiz-adv-x="1599" d="M-139 -186l63.5 77.5t133 161.5t102.5 123h153q30 17 112.5 67t156.5 99q-17 10 -113 17t-172.5 26t-134.5 80t-58 178q0 137 101.5 273.5t265.5 246t350.5 174t349.5 64.5q128 0 212 -36t124.5 -101t40.5 -148q0 -100 -64.5 -216.5t-275.5 -328.5h172l86 -186l-503 -12 l-252 -183h483l78 -190l-912 -2q-36 -24 -101.5 -58.5t-171 -72.5t-226.5 -53zM319 676q3 -125 142 -125q139 1 250 1.5t180 0.5q21 0 92.5 62t160 160t147.5 188t59 147q-3 36 -29 60t-63.5 35.5t-73.5 11.5q-151 0 -304.5 -56t-282 -144.5t-203.5 -181.5t-75 -159z" />
<glyph unicode="R" horiz-adv-x="1884" d="M-66 -2q19 50 118 172t262.5 327t256.5 367.5t93 280.5q0 55 -25 61h-141l-49 193q12 -2 73 -2q53 1 96.5 1.5t86.5 0.5q57 0 120.5 -34.5t63.5 -133.5q0 -72 -13.5 -109.5t-39.5 -84t-33 -83.5q9 6 116 93t219 166.5t237 140.5t220 61q240 0 240 -280q0 -182 -93 -326.5 t-222 -236.5t-244 -140t-166 -55l111 -184h190l64 -193h-400q-37 78 -111 205t-137 162l-225 4l203 198q41 0 101.5 1.5t92.5 2.5q135 0 284.5 95t249 225t99.5 219q0 42 -13 62t-60 20q-56 0 -181 -68t-286.5 -184.5t-302 -238.5t-232.5 -232q-74 -89 -188 -247t-172 -226 h-263z" />
<glyph unicode="S" horiz-adv-x="1546" d="M-86 0l100 195h609q58 0 106.5 34t48.5 101q0 57 -37.5 106.5t-122.5 138.5t-126 152.5t-41 136.5q0 119 95 227.5t235.5 186t277.5 121t219 43.5q85 0 135.5 -21.5t73 -55.5t22.5 -77q0 -45 -47.5 -141t-128 -208.5t-168.5 -201.5h-245q62 76 129 162.5t128.5 177 t61.5 113.5q0 37 -39 37q-41 0 -170.5 -60.5t-233.5 -142t-104 -152.5q0 -55 32 -96t119.5 -126.5t131 -155.5t43.5 -158q0 -123 -70 -198.5t-176 -106.5t-221 -31h-637z" />
<glyph unicode="T" horiz-adv-x="1430" d="M41 950l92 217l721 127l61 156l244 41l-47 -154l295 45l-57 -211l-326 -53l-436 -1112l-252 -65l424 1126z" />
<glyph unicode="U" horiz-adv-x="1460" d="M43 225q0 75 41.5 204t118.5 318t108 269.5t31 109.5q0 99 -201 99l133 202q52 0 106.5 -17t99.5 -50.5t71.5 -83.5t26.5 -113q0 -59 -44.5 -186t-131.5 -336t-116.5 -284.5t-29.5 -112.5q0 -62 63 -62q49 1 120 43t140 103.5t128.5 133t85.5 124.5q62 125 100.5 209 t97.5 218t85 189t75 146l274 32q-23 -102 -77 -203.5t-173 -306.5t-171 -330t-52 -241q0 -100 84 -100h148l-90 -201h-119q-105 0 -161 47.5t-56 159.5q0 17 4 57q-42 -44 -83.5 -88t-98.5 -91.5t-125.5 -78.5t-143.5 -31q-103 0 -185.5 73.5t-82.5 178.5z" />
<glyph unicode="V" horiz-adv-x="1313" d="M39 135q0 65 10 142t33 204t63 332t100.5 384.5t69.5 188.5h217q-11 -39 -42 -144t-87 -311t-90 -359.5t-34 -221.5q65 50 195 206.5t253 326.5t223 325t111 201l244 2q-27 -70 -96 -185t-134.5 -210.5t-158.5 -225t-101 -139.5q-226 -292 -414.5 -484t-275.5 -192 q-46 0 -66 47t-20 113z" />
<glyph unicode="W" horiz-adv-x="1862" d="M43 160q0 196 57.5 466t114 463.5t84.5 278.5l233 25q-56 -149 -106.5 -326.5t-85.5 -337t-54.5 -274.5t-19.5 -150q21 17 107 109.5t162 181t143.5 180t85.5 144.5q36 98 51.5 148.5t34.5 120t28 100.5t31 93l201 17l-240 -979l9 -70q13 13 80.5 91.5t159.5 194.5 t181 245q90 129 194 289t151 235l245 14q-11 -21 -52 -92t-85.5 -143.5t-144.5 -224t-215 -308.5q-51 -68 -136 -171.5t-193 -224t-199 -200.5t-136 -80q-33 0 -49.5 28t-20.5 63.5t-4 85.5q0 40 12.5 154.5t12.5 174.5q-8 -9 -118 -137.5t-187.5 -209.5t-135.5 -123 t-104 -42q-92 0 -92 191z" />
<glyph unicode="X" horiz-adv-x="1669" d="M-68 -2q27 57 131.5 187t229.5 268t249.5 263t194.5 181l-248 516l232 -22q10 -5 33 -48.5t54.5 -107t56.5 -112t42 -74.5q111 80 242 155t273 130t259 61l-53 -217q-43 -11 -145 -55.5t-230 -120t-252 -177.5q57 -120 106.5 -262.5t80.5 -256.5t50.5 -197t25.5 -113 q-226 0 -230 4q-2 2 -30 107.5t-56.5 209.5t-64.5 210.5t-64 144.5q-137 -127 -276.5 -280t-222.5 -253t-117 -143q-37 1 -90 1.5t-181 0.5z" />
<glyph unicode="Y" horiz-adv-x="1374" d="M35 193q0 75 48.5 209t163.5 427.5t115 329.5q0 55 -45 55h-172l68 185h184q74 0 130.5 -33t56.5 -123q0 -54 -46.5 -193t-105.5 -290t-122.5 -316t-63.5 -194q0 -57 59 -57q68 0 181 102t215.5 239t138.5 224q38 92 87.5 227t83.5 210t83 142l301 105 q-15 -59 -66.5 -167.5t-126.5 -243.5t-147 -259q-31 -51 -48.5 -98t-31 -96t-24 -95t-19.5 -75q-46 -137 -98.5 -270.5t-157.5 -330.5t-258 -425h-221q37 61 102 165.5t133.5 221.5t128 235t76.5 184q-24 -23 -80 -69.5t-135.5 -92.5t-145.5 -46q-115 0 -178 62t-63 151z " />
<glyph unicode="Z" horiz-adv-x="1466" d="M-219 -424q1 132 143 247.5t303.5 188t233.5 90.5q0 18 -12.5 61.5t-12.5 61.5q0 36 34.5 75t140.5 136.5t192.5 184t202.5 225.5q20 24 70.5 87t85 118t34.5 88q0 42 -31 64t-84 22q-112 0 -247 -49.5t-275.5 -129.5t-252 -161.5t-171.5 -136.5l-24 237 q92 87 215.5 168.5t259 143t267 96t237.5 34.5q74 0 151.5 -22.5t130.5 -74t53 -136.5q0 -118 -91.5 -260t-187.5 -247t-269.5 -280t-194.5 -212q0 -23 8 -33t33 -10q49 13 135 24.5t160 11.5l80 -190q-72 -6 -189.5 -16.5t-167.5 -22.5q11 -22 11 -53q0 -95 -79 -220 t-234.5 -214.5t-372.5 -89.5q-139 0 -212 54.5t-73 139.5zM-6 -397q0 -25 21.5 -36t43.5 -11q104 0 212.5 45.5t179.5 112.5t71 124q0 11 -12 56q-32 -10 -105.5 -37.5t-172 -72t-168.5 -92t-70 -89.5z" />
<glyph unicode="[" horiz-adv-x="1010" d="M90 -92q33 88 128 337.5t153.5 402.5t131.5 343.5t105 274.5l436 166l-49 -168l-258 -105q-2 -3 -70 -178t-139.5 -362t-116.5 -305t-69 -181l289 121q-11 -38 -22.5 -78t-17 -58.5t-9.5 -31.5z" />
<glyph unicode="\" horiz-adv-x="715" d="M166 1339q10 5 65.5 26t94.5 36l372 -1360l-147 -64z" />
<glyph unicode="]" horiz-adv-x="1010" d="M43 -123l66 172l247 96q4 8 54 137t146.5 377t137.5 354.5t66 170.5l-301 -127l61 166l500 182l-535 -1364z" />
<glyph unicode="^" horiz-adv-x="1024" d="M94 815l355 555h145l354 -555h-182l-246 352l-241 -352h-185z" />
<glyph unicode="_" horiz-adv-x="926" d="M0 -399h926v-158h-926v158z" />
<glyph unicode="`" horiz-adv-x="573" d="M109 1305q0 45 75 45q35 0 57.5 -5t45 -23t59 -68.5t74.5 -120.5q31 -56 31 -72t-13 -26.5t-28 -10.5q-18 0 -95 58.5t-141.5 125.5t-64.5 97z" />
<glyph unicode="a" horiz-adv-x="848" d="M45 158q0 72 49.5 160.5t141.5 165t222 125t285 48.5q26 0 78 -4q0 -3 -39.5 -61.5t-66.5 -97.5q-135 -4 -246.5 -51.5t-175.5 -114.5t-64 -123q0 -36 17 -49t51 -13q65 0 98.5 37.5t61.5 109t43 95.5l180 29q-23 -44 -58.5 -118.5t-35.5 -94.5q0 -31 13 -41t44 -10h96 l-61 -154h-115q-57 0 -82 11t-36.5 27.5t-16.5 16.5q-1 -4 -8.5 -14t-23.5 -20t-52 -18.5t-90 -8.5q-106 0 -157.5 40t-51.5 128z" />
<glyph unicode="b" horiz-adv-x="727" d="M43 199q0 61 13.5 122.5t50 168.5t118.5 331q86 233 139 347t72 147l178 41q-45 -114 -130.5 -333t-183 -486.5t-97.5 -317.5q0 -72 65 -72q31 0 74.5 44t75 103.5t31.5 96.5q-11 10 -40 20.5t-40 22.5q0 26 79.5 123.5t110.5 97.5q23 0 45.5 -33.5t34.5 -56.5l104 -4 l-32 -145q-17 -1 -45.5 -6t-32.5 -13q-12 -27 -42 -93t-79.5 -141t-124 -130.5t-168.5 -55.5q-176 0 -176 222z" />
<glyph unicode="c" horiz-adv-x="748" d="M43 188q0 72 46.5 161.5t125 170.5t173.5 131.5t181 50.5q77 0 104 -40.5t27 -110.5q0 -60 -16 -102t-27 -58l-149 -31q1 17 7 31t16 34t15 33t5 31q0 29 -9 35t-34 6q-42 0 -112.5 -58.5t-125.5 -136.5t-55 -124q0 -37 13 -49t38 -12q11 1 19.5 1.5t21.5 0.5h283 l-45 -154h-228q-150 0 -212 39t-62 151z" />
<glyph unicode="d" horiz-adv-x="991" d="M47 190q0 136 69 235t173.5 156t207 82t179.5 29q14 14 68.5 143t108.5 265t79 200l217 37q-41 -174 -96 -294t-140 -276t-122 -262t-37 -243q0 -102 55 -102h125l-43 -160h-178q-62 0 -90.5 53.5t-28.5 130.5q-56 -56 -97 -96.5t-69 -60.5t-68 -29.5t-98 -9.5 q-82 0 -128.5 22t-66.5 66t-20 114zM213 213q0 -72 80 -72q54 0 130 72t133.5 164t57.5 139q-57 0 -154.5 -37.5t-172 -106t-74.5 -159.5z" />
<glyph unicode="e" horiz-adv-x="748" d="M68 225q0 117 75.5 227.5t185.5 179t197 68.5q73 0 123.5 -45t50.5 -116q0 -116 -95 -214t-257 -159q31 -16 164 -16q33 1 58 1.5t36 0.5l-28 -148q0 -8 -222 -8q-106 0 -169.5 22t-91 71.5t-27.5 135.5zM221 258q96 34 166 79t109 91.5t39 75.5q0 28 -66 28 q-12 0 -66.5 -36t-107 -97t-74.5 -141z" />
<glyph unicode="f" horiz-adv-x="809" d="M-90 -465q0 114 68 322.5t135.5 371t101.5 236.5l-147 76l45 102h170l256 674l180 33l-264 -707l84 -1.5t134 -2t83 -0.5l-43 -129l-252 -12q8 -13 66.5 -80t86 -129.5t27.5 -167.5q0 -146 -94 -328.5t-232.5 -310t-259.5 -127.5q-78 0 -111.5 55t-33.5 125zM49 -453 q0 -19 8 -37t29 -18q56 0 156.5 116t178 262t77.5 232q0 61 -21 116.5t-54 94t-69 54.5q-54 -133 -127 -315.5t-125.5 -325t-52.5 -179.5z" />
<glyph unicode="g" horiz-adv-x="877" d="M-47 -657l76 155q51 34 103 69.5t101 86.5t94 134.5t74 203.5q-16 -8 -58.5 -20.5t-104.5 -12.5q-94 0 -144.5 52t-50.5 139q0 120 72.5 217.5t172.5 158t203.5 95t153.5 34.5l215 2q0 -6 -48 -83.5t-52 -77.5q-15 4 -47 4q-88 0 -207.5 -48t-206 -122.5t-90.5 -145.5 q0 -36 21 -52.5t38 -16.5q111 0 179.5 91t97.5 175l229 37q-5 -49 -32 -93.5t-67.5 -106.5t-56.5 -109q-62 -184 -132.5 -338t-205.5 -287.5t-327 -140.5z" />
<glyph unicode="h" horiz-adv-x="862" d="M-16 -16l514 1314l196 31l-307 -821q20 8 79.5 51t106.5 68.5t97 25.5q37 0 73.5 -22t36.5 -80q0 -37 -21 -94.5t-62.5 -158.5t-41.5 -112q0 -41 39 -41h97l-56 -147h-227q-35 0 -54.5 28t-19.5 64q0 25 15 65.5t44 113t54 151.5q-3 1 -6.5 2.5t-5.5 2.5t-7 1 q-24 0 -75 -47.5t-108.5 -117.5t-109.5 -145t-75 -118z" />
<glyph unicode="i" horiz-adv-x="498" d="M33 96q0 23 42 143t82.5 224t61.5 155l191 44l-191 -480q0 -31 41 -35h90l-51 -147l-178 -4q-30 0 -59 29t-29 71zM250 975q0 65 41 106t106 41q41 0 77 -20.5t56.5 -56.5t20.5 -84q0 -67 -42.5 -112.5t-105.5 -45.5q-38 0 -95.5 41.5t-57.5 130.5z" />
<glyph unicode="j" horiz-adv-x="705" d="M-219 -643l65 190q85 20 158.5 115t130 238.5t96.5 302.5l-170 -80l58 199q100 48 180 127t117 163q0 2 73.5 27.5l122.5 42.5q-50 -93 -138.5 -369t-165 -461t-208 -332.5t-319.5 -162.5zM461 983q0 68 48 117t95 49q26 0 63 -17.5t65 -55t28 -93.5q0 -58 -35 -110 t-104 -52q-72 0 -116 58t-44 104z" />
<glyph unicode="k" horiz-adv-x="797" d="M-16 -23l503 1309l197 57l-319 -856l235 175l145 -95q-101 -77 -162.5 -123.5t-92.5 -80t-31 -66.5q0 -86 45 -116.5t119 -30.5q24 1 44 1.5t48 0.5l-56 -154h-225q-40 0 -70.5 52t-51 117t-31.5 99l-117 -258z" />
<glyph unicode="l" horiz-adv-x="553" d="M12 131q0 43 55 195.5t139.5 359t162 392.5t92.5 227l182 55l-465 -1192h213q-15 -40 -38 -102t-23 -68h-189q-48 4 -73 12.5t-40.5 37t-15.5 83.5z" />
<glyph unicode="m" horiz-adv-x="1219" d="M-10 -23l254 623l162 31l-46 -166q21 17 59 48t76 57t87 49.5t90 23.5q59 0 75.5 -29t16.5 -82v-18q0 -31 4 -41q32 21 93 73.5t99.5 74.5t88.5 22q64 0 90 -32t26 -70q0 -35 -22 -95t-63.5 -158.5t-41.5 -109.5q0 -23 12.5 -31t39.5 -8q18 1 33.5 1.5t47.5 0.5l-59 -141 h-209q-37 0 -48.5 16.5t-27.5 67.5l123 328q-1 0 -8 5t-14 5q-61 0 -141 -90t-136 -180.5t-80 -135.5l-165 -28l52 152q52 151 87 251q0 8 -3 19.5t-14 11.5q-58 0 -134 -85t-135.5 -178t-98.5 -155z" />
<glyph unicode="n" horiz-adv-x="825" d="M-6 0l233 590q3 3 73 18t116 25q-15 -24 -37.5 -74t-22.5 -94q54 52 153.5 115t152.5 63q40 0 68 -28t28 -62q0 -7 -4 -25l-123 -350q10 -26 19.5 -32t45.5 -7h70l-43 -139h-207q-47 0 -66.5 14t-19.5 64q0 30 49 144t78 200q-3 1 -7.5 9.5t-10.5 8.5q-42 0 -101.5 -58.5 t-114 -134t-109.5 -159t-62 -88.5h-158z" />
<glyph unicode="o" d="M43 231q0 135 72 235.5t169.5 155t157.5 54.5q118 0 173.5 -64.5t60.5 -119.5h110l-43 -154h-63q-11 -40 -49 -122t-122 -163.5t-208 -81.5q-83 0 -141 38t-87.5 98t-29.5 124zM201 244q0 -39 24.5 -77t75.5 -38q53 0 98.5 35t75 81t29.5 66q0 17 -29 28t-49 43.5 t-20 127.5q-99 -46 -152 -133t-53 -133z" />
<glyph unicode="p" horiz-adv-x="940" d="M-233 -567q8 45 30 103.5t78.5 184t87 194t53.5 126.5q48 124 69.5 266.5t23.5 253.5q0 32 -5 92h162q1 -8 8 -31t7 -34q0 -77 -8.5 -127.5t-8.5 -52.5q52 51 122 117.5t152 119.5t156 53q34 0 82 -18t86.5 -63.5t38.5 -122.5q0 -63 -22.5 -118.5t-55 -96t-62 -65.5 t-50.5 -44q16 -9 56 -13.5t62 -4.5l-67 -154q-30 0 -105 -0.5t-153 -1.5t-136.5 -1.5t-91.5 -0.5l80 145q56 10 148 55.5t164.5 119t72.5 161.5q0 55 -43 55q-53 0 -141.5 -59.5t-188 -167.5t-184.5 -250q-34 -58 -75.5 -167t-88.5 -235.5t-79 -187.5z" />
<glyph unicode="q" horiz-adv-x="870" d="M43 143q0 81 57 175t148.5 174.5t196.5 130t198 49.5q54 0 69.5 -1t42.5 -3.5t56 -5.5l-98 -164q-143 0 -259.5 -49.5t-182 -129t-70.5 -165.5q0 -23 11 -31t32 -8q52 0 98 37t78 89t47 97l184 55l-340 -864q0 -27 3.5 -33t17.5 -6q39 0 93.5 57.5t93 149t38.5 188.5 q0 61 -18 99l110 155h166q0 -4 -30.5 -76t-30.5 -75q-15 -7 -38.5 -18t-23.5 -13q1 -19 1.5 -36t0.5 -50q0 -80 -26 -158q-55 -155 -145.5 -275t-229.5 -120q-77 0 -106 42.5t-29 119.5q0 25 27 119.5t64.5 201t76.5 193.5q-20 -12 -58.5 -29.5t-60.5 -17.5q-66 0 -115 65.5 t-49 130.5z" />
<glyph unicode="r" horiz-adv-x="758" d="M82 397l131 338h141l-32 -98h362l-27.5 -85t-19.5 -54h-27q-41 -25 -91.5 -75t-89 -109t-38.5 -101q0 -66 66 -66h176l-41 -147l-227 -4q-65 0 -102.5 46t-37.5 122q0 45 24 97t65 112t63 94h-127l-27 -70h-141z" />
<glyph unicode="s" horiz-adv-x="682" d="M29 -2l61 160h174q54 0 90.5 34t53 78t16.5 72q0 13 -11 52.5t-26 60.5l-94 -117l-143 72l55 64q55 63 138.5 160.5t117.5 137.5l170 -18l-109 -142q0 -8 18.5 -56t33 -101.5t14.5 -104.5q0 -137 -86 -244.5t-215 -107.5h-258z" />
<glyph unicode="t" horiz-adv-x="604" d="M53 82q0 10 6 27l138 372h-138l68 162h135l100 240l173 30l-101 -266h137l-63 -166h-146l-110 -307q0 -29 29 -31h165q0 -4 -20 -56.5t-33 -88.5q-10 -1 -35.5 -2.5t-60.5 -1.5q-95 0 -169.5 19.5t-74.5 68.5z" />
<glyph unicode="u" horiz-adv-x="797" d="M29 121q0 27 70 206t116 291l184 31l-178 -436q-4 0 -4 -16q0 -21 25 -21q68 0 138 100.5t114.5 203.5t62.5 153l191 -25q-20 -38 -62.5 -122.5t-79.5 -161.5t-37 -86q0 -46 18.5 -65.5t52.5 -23.5t108 -4l-50 -145h-170q-43 1 -62.5 14.5t-40 39t-36.5 30.5 q-19 -9 -49 -35t-65.5 -39.5t-98.5 -13.5q-147 0 -147 125z" />
<glyph unicode="v" horiz-adv-x="825" d="M59 248q0 70 30 196.5t50 196.5l180 27q-26 -68 -65 -191.5t-39 -200.5q0 -36 1.5 -45.5t10.5 -9.5q20 0 64 42t81.5 90t37.5 57q0 4 -11.5 21t-11.5 30q0 14 29.5 50t76 81.5t91.5 76.5t69 31q29 0 37 -20t8 -72h99q-18 -49 -45 -124.5t-27 -80.5h-117 q-31 -45 -110.5 -142.5t-172.5 -185t-153 -87.5q-38 0 -64 38.5t-37.5 97t-11.5 124.5z" />
<glyph unicode="w" horiz-adv-x="1147" d="M43 240q0 126 30 234.5t50 156.5l196 31q-25 -78 -64 -213t-42 -179q0 -32 3 -43.5t17 -11.5q64 0 113.5 92.5t74.5 186t34 139.5l200 37q-26 -77 -66.5 -210.5t-43.5 -178.5q0 -40 3 -57t11 -17q25 0 101.5 90t76.5 106q0 3 -12 21t-12 39q0 20 50 72t111 95.5t95 43.5 q65 0 65 -60q0 -9 -1.5 -15t-2.5 -9h92l-71 -178h-101q-42 -75 -127.5 -176.5t-180 -177.5t-157.5 -76q-29 0 -46 19t-35 57t-31 57q-26 -23 -62.5 -55.5t-76.5 -55t-76 -22.5q-60 0 -87.5 78t-27.5 180z" />
<glyph unicode="x" horiz-adv-x="862" d="M0 0q11 22 50 58.5t141.5 128.5t113.5 108q-9 26 -27 88t-35.5 144t-17.5 145l160 -21q0 -27 20.5 -99t34.5 -112q45 43 116.5 121.5t82.5 120.5l182 -27q0 -39 -70 -130.5t-139 -165.5t-104 -109q0 -55 57 -69.5t152 -14.5l-37 -166h-152q-60 0 -102.5 43t-58.5 72 q-24 -30 -72.5 -69.5t-63.5 -45.5h-231z" />
<glyph unicode="y" d="M-47 -662l88 183q27 0 71 26.5t95.5 89t97.5 166.5t74 256q-19 0 -43.5 -22t-58.5 -35.5t-111 -13.5q-74 0 -96.5 40.5t-22.5 100.5q0 96 53 221t88 189l211 92l-172 -422q0 -21 7.5 -30t27.5 -9q42 0 112.5 83t131 188.5t63.5 142.5l242 67q-48 -89 -125 -230.5 t-98 -174.5q-76 -434 -232 -671t-403 -237z" />
<glyph unicode="z" horiz-adv-x="631" d="M-80 -612q19 25 97 108.5t146.5 162.5t121.5 162.5t53 137.5q0 40 -41 45q-21 0 -29 -4h-202q5 12 97.5 128.5t155 203.5t62.5 117q0 24 -21 38.5t-61 14.5l-240 -37l101 197l233 2q79 0 125.5 -47.5t46.5 -102.5q0 -83 -49 -175t-108 -161q69 -47 94.5 -98.5 t25.5 -120.5q0 -91 -88 -223.5t-180 -234t-137 -144.5z" />
<glyph unicode="{" horiz-adv-x="1004" d="M61 -414q0 55 22.5 129t70.5 209q41 119 56 171.5t15 97.5q0 56 -31.5 86.5t-103.5 31.5l60 164q94 1 158 52t104 131t86 204q57 154 94.5 235.5t92 141t136.5 90.5q45 18 81 21.5t149 3.5l-58 -156q-91 0 -134.5 -11.5t-75 -54t-68.5 -141.5l-53 -147 q-37 -102 -73.5 -174t-78 -122t-96 -87t-127.5 -68q110 -56 110 -174q0 -98 -65 -276l-56 -148q-34 -97 -34 -137q0 -31 17 -46t51 -19.5t93 -4.5l-55 -155q-112 0 -146 3.5t-67 20.5q-74 40 -74 129z" />
<glyph unicode="|" horiz-adv-x="784" d="M10 -18l529 1357l186 66q-5 -20 -131 -344t-233 -598t-164 -420z" />
<glyph unicode="}" horiz-adv-x="1004" d="M-262 -524l57 155q67 0 106 5.5t68.5 25.5t52.5 59t52 117l53 148q50 136 100.5 221.5t113 136.5t161.5 92q-58 30 -84.5 70t-26.5 104q0 94 66 277l55 147q35 97 35 137q0 31 -17 46t-51.5 19.5t-93.5 4.5l55 156q113 0 147.5 -3.5t65.5 -21.5q74 -40 74 -129 q0 -54 -21 -125.5t-71 -212.5q-18 -50 -29 -81.5t-22 -69.5t-16 -63.5t-5 -53.5q0 -116 135 -119l-59 -164q-95 -1 -158.5 -51.5t-102 -127t-87.5 -208.5q-57 -154 -94.5 -234.5t-91.5 -140t-138 -92.5q-44 -17 -80 -20.5t-149 -3.5z" />
<glyph unicode="~" horiz-adv-x="1157" d="M90 494q20 71 40.5 115t51.5 79q99 109 203 109q31 0 66 -14.5t227 -106.5q26 -12 65 -29.5t48 -21t29.5 -8.5t39.5 -5q73 0 121.5 46.5t77.5 136.5h51q-32 -140 -111.5 -221.5t-189.5 -81.5q-45 0 -121 38.5t-168 79.5q-84 41 -115 52.5t-65 11.5q-70 0 -114.5 -42.5 t-84.5 -137.5h-51z" />
<glyph unicode="&#xa1;" horiz-adv-x="733" d="M-111 -328l349 930l198 37l-356 -944zM283 854q0 72 42 114t103 42q60 0 105 -47.5t45 -108.5q0 -54 -37 -101.5t-107 -47.5q-54 0 -102.5 39.5t-48.5 109.5z" />
<glyph unicode="&#xa2;" horiz-adv-x="748" d="M43 188q0 63 37 142t100.5 153.5t140.5 128.5t156 76l51 139l187 66q-3 -8 -13 -34t-26.5 -66.5t-40.5 -102.5q65 -28 65 -139q0 -60 -16 -102t-27 -58l-149 -31q1 17 7 31t16 34t15 33t5 31q0 29 -9 35t-34 6q-42 0 -112.5 -58.5t-125.5 -136.5t-55 -124q0 -37 13 -49 t38 -12q11 1 19.5 1.5t21.5 0.5h283l-45 -154h-164q-13 -38 -22.5 -66t-12.5 -38l-186 -62l65 170q-97 9 -139.5 51t-42.5 135z" />
<glyph unicode="&#xa3;" horiz-adv-x="1341" d="M23 612l67 166h123l59 211q0 79 86.5 155.5t214.5 136t263 96t215 36.5q99 0 171 -48.5t72 -129.5q0 -69 -54 -148t-126.5 -139t-114.5 -71l-180 69q12 17 97 74.5t133.5 99.5t48.5 82q0 37 -51 37q-57 0 -204 -42.5t-259.5 -103.5t-112.5 -122l-49 -193l432 2l-43 -166 q-47 0 -131 -0.5l-168 -1t-133 -0.5l-103 -403q0 -15 5 -18t22 -3h664l-109 -190h-639q-64 0 -120 49t-56 113l125 452h-145z" />
<glyph unicode="&#xa5;" horiz-adv-x="1374" d="M-88 600l68 166h241q27 66 65.5 165.5t57 153t18.5 74.5q0 55 -45 55h-172l68 185h184q74 0 130.5 -33t56.5 -123q0 -50 -40 -172t-112 -305h410q37 91 73.5 190t60 157t53.5 116.5t65 107.5l301 105q-15 -59 -66.5 -167.5t-126.5 -243.5t-147 -259q0 -1 -1.5 -2.5 t-2.5 -3.5l282 2l-43 -166h-309q-11 -41 -24.5 -100t-24.5 -94q-46 -137 -98.5 -270.5t-157.5 -330.5t-258 -425h-221q37 61 102 165.5t133.5 221.5t128 235t76.5 184q-24 -23 -80 -69.5t-135.5 -92.5t-145.5 -46q-115 0 -178 62t-63 151q0 86 123 407h-246zM246 250 q0 -57 59 -57q53 0 132.5 61.5t159.5 152t153 195.5h-106t-169.5 -0.5t-105.5 -1.5q-123 -307 -123 -350z" />
<glyph unicode="&#xa6;" horiz-adv-x="784" d="M10 -18l529 1357l186 66q-5 -20 -131 -344t-233 -598t-164 -420z" />
<glyph unicode="&#xa8;" horiz-adv-x="692" d="M100 1198q0 8 4.5 18.5t12 23.5t10.5 20q13 23 41.5 36t60.5 13q33 0 54.5 -12.5t21.5 -34.5q0 -21 -30 -68t-68 -47q-62 0 -84.5 8t-22.5 43zM383 1184q0 11 4.5 22t13 25t11.5 20q10 21 34.5 37.5t47.5 16.5q51 0 75.5 -8t24.5 -42q0 -22 -29.5 -65t-81.5 -43 q-55 0 -77.5 5.5t-22.5 31.5z" />
<glyph unicode="&#xa9;" horiz-adv-x="1634" d="M98 696q0 148 55.5 279.5t155 232t231.5 156t279 55.5q149 0 279.5 -55t229.5 -154.5t155.5 -233t56.5 -280.5q0 -146 -56.5 -279.5t-156 -232.5t-229.5 -154t-279 -55q-147 0 -278.5 55.5t-231.5 155.5t-155.5 231.5t-55.5 278.5zM240 713q0 -158 77.5 -290.5t210 -210 t289.5 -77.5q118 0 224 45t185.5 124.5t124 185t44.5 223.5t-44.5 223.5t-124 185t-185.5 124t-224 44.5q-157 0 -289.5 -77.5t-210 -210t-77.5 -289.5zM461 516q0 67 53.5 163.5t139.5 187t186.5 149.5t191.5 59q49 0 85 -31.5t36 -76.5q0 -72 -72 -161t-161 -156.5 t-109 -67.5q4 0 -42 10t-75 16q8 11 62.5 52t127 98t115.5 102.5t43 75.5q0 35 -41 35q-35 0 -108.5 -45.5t-149.5 -115.5t-128 -146.5t-52 -137.5q0 -71 76 -71h301l-76 -101h-239q-164 0 -164 162z" />
<glyph unicode="&#xaa;" horiz-adv-x="637" d="M0 635v113h635v-113h-635zM35 979q0 75 65.5 163.5t184.5 149t272 60.5q39 0 59 -2l-79 -119q-99 -3 -183.5 -38t-133 -86t-48.5 -93q0 -27 12.5 -36t38.5 -9q48 0 73.5 27t48.5 84t30 69l135 22q-17 -34 -43.5 -89.5t-26.5 -69.5q0 -24 9.5 -31.5t33.5 -7.5h72l-47 -117 h-86q-42 0 -61.5 9t-27 21.5t-11.5 12.5q1 0 -10 -13.5t-39.5 -23.5t-82.5 -10q-80 0 -117.5 30t-37.5 97z" />
<glyph unicode="&#xab;" horiz-adv-x="881" d="M156 406q21 90 188 229q60 49 106.5 77.5t89 41t87.5 12.5q35 0 35 -12q-2 -7 -22.5 -23t-43.5 -31q-44 -26 -109.5 -81t-116.5 -114.5t-59 -96.5q0 -169 66 -299q26 -57 26 -84q-6 -25 -51 -25q-93 0 -129 80q-30 77 -48.5 167t-18.5 159zM496 375q0 11 4 33 q15 82 200 237q89 72 143 97.5t115 25.5q37 0 37 -14q-7 -22 -80 -70q-75 -48 -161.5 -136t-98.5 -140q0 -60 22.5 -152t51.5 -158q27 -51 27 -82q-5 -16 -43 -16q-60 0 -90.5 16t-44.5 44.5t-33 93.5q-49 165 -49 221z" />
<glyph unicode="&#xac;" horiz-adv-x="678" d="M98 489l62 154h434l-121 -301l-162 2l68 148z" />
<glyph unicode="&#xad;" horiz-adv-x="678" d="M98 489l62 154h434l-74 -149z" />
<glyph unicode="&#xae;" horiz-adv-x="1634" d="M98 696q0 148 55.5 279.5t155 232t231.5 156t279 55.5q149 0 279.5 -55t229.5 -154.5t155.5 -233t56.5 -280.5q0 -146 -56.5 -279.5t-156 -232.5t-229.5 -154t-279 -55q-147 0 -278.5 55.5t-231.5 155.5t-155.5 231.5t-55.5 278.5zM240 713q0 -158 77.5 -290.5t210 -210 t289.5 -77.5q118 0 224 45t185.5 124.5t124 185t44.5 223.5t-44.5 223.5t-124 185t-185.5 124t-224 44.5q-157 0 -289.5 -77.5t-210 -210t-77.5 -289.5zM483 1049h115q26 0 61 -15.5t52 -60.5q14 -31 14 -62q0 -15 -0.5 -29t-1.5 -34q17 21 61.5 72t102.5 94t112 43 q60 0 96.5 -35.5t59.5 -91.5q21 -55 21 -101q0 -74 -42.5 -127t-94.5 -81t-78 -33l83 -82h86l62 -86h-178q-31 35 -87.5 92.5t-88.5 73.5h-105l60 90q27 1 49.5 1.5t36.5 0.5q79 0 137.5 68.5t58.5 136.5q0 20 -6 37q-14 36 -49 36q-34 0 -99.5 -53t-129 -129.5 t-93.5 -142.5q-21 -49 -45 -117t-37 -96h-116q0 24 43 126t68.5 175t25.5 143q0 37 -12 72q-7 26 -19 29h-63z" />
<glyph unicode="&#xaf;" horiz-adv-x="1065" d="M74 1251l61 154h920l-72 -150z" />
<glyph unicode="&#xb1;" horiz-adv-x="940" d="M94 23l62 153h694l-72 -149zM98 530l62 154h241l2 227l150 72v-299h301l-72 -149l-229 -3v-243l-154 -62l2 305z" />
<glyph unicode="&#xb2;" horiz-adv-x="758" d="M20 782l101 111q-1 0 20 2.5t41.5 9.5t46.5 21q61 36 135 92t126.5 114.5t52.5 100.5q0 45 -49 45q-46 0 -93.5 -25.5t-114 -72t-87.5 -56.5l4 148q8 19 115 82t182 63q83 0 134.5 -49t51.5 -125q0 -93 -66 -170.5t-167 -157.5h206l-57 -139h-414l-161 -49z" />
<glyph unicode="&#xb3;" horiz-adv-x="645" d="M16 977q28 -7 68.5 -17.5t78 -15t91.5 -4.5q77 0 110 9.5t33 43.5q0 40 -26.5 54t-79.5 14q-31 0 -52 -0.5t-46 -1.5l79 147q7 -1 23.5 -2.5t36.5 -1.5q125 0 125 66q0 12 -14.5 14t-67.5 4q-33 0 -48 -0.5t-37 -1.5t-49.5 -2t-54.5 -2l56 135q10 1 18.5 2l25.5 3 t28.5 2.5t37.5 0.5q117 0 184.5 -40t67.5 -115q0 -55 -29 -95.5t-75 -62.5q22 -29 31.5 -48.5t9.5 -64.5q0 -106 -79 -155t-192 -49q-148 0 -215 36z" />
<glyph unicode="&#xb4;" horiz-adv-x="573" d="M180 1061q0 19 31 72q61 107 98.5 151.5t64.5 55t72 10.5q76 0 76 -45q0 -30 -64.5 -97t-141.5 -125.5t-95 -58.5q-15 0 -28 10.5t-13 26.5z" />
<glyph unicode="&#xb8;" horiz-adv-x="518" d="M68 -311q0 7 14.5 22.5t34.5 18.5q73 13 109 32.5t36 51.5q0 24 -10.5 33t-44.5 12q-47 3 -47 30q0 35 45 82l41 43h121q-40 -43 -78 -102q75 0 112 -15.5t37 -64.5q0 -68 -81 -117t-193 -49q-96 0 -96 23z" />
<glyph unicode="&#xb9;" horiz-adv-x="492" d="M49 770l236 643l147 8q0 -17 -90.5 -253.5t-151.5 -391.5z" />
<glyph unicode="&#xba;" horiz-adv-x="612" d="M0 635v113h594v-113h-594zM33 1014q0 101 54 176.5t126.5 116.5t118.5 41q89 0 130 -48.5t46 -91.5h82l-33 -114h-47q-8 -31 -37 -93t-93 -123t-155 -61q-89 0 -140.5 61t-51.5 136zM152 1022q0 -28 18 -57t55 -29q58 0 106 54.5t48 82.5q0 13 -22 21t-37 32.5t-15 96.5 q-54 -25 -88 -65t-49.5 -78t-15.5 -58z" />
<glyph unicode="&#xbb;" horiz-adv-x="1036" d="M98 12q7 22 80 70q82 54 166 139t94 137q0 60 -23 154t-50 156q-27 48 -27 82q5 16 43 16q86 0 114.5 -32.5t53.5 -121.5q49 -165 49 -221q0 -11 -4 -33q-15 -83 -201 -237q-87 -71 -141.5 -97t-116.5 -26q-37 0 -37 14zM432 12q4 16 66 54q77 45 175 141.5t109 150.5 q0 76 -17.5 158t-47.5 141q-27 56 -27 84q6 25 51 25q94 0 129 -80q30 -74 49 -164.5t19 -161.5q-21 -89 -188 -229q-86 -71 -151 -101t-132 -30q-35 0 -35 12z" />
<glyph unicode="&#xbc;" horiz-adv-x="1280" d="M-41 10l1106 1413l174 -6q-7 -28 -173 -245.5t-414.5 -529t-345 -430.5t-163.5 -202h-184zM100 770l236 643l147 8q0 -9 -34.5 -102.5t-107 -284t-99.5 -258.5zM520 121l39 125l498 368l125 4l-142 -360h76l-43 -137h-86l-41 -129l-174 -33l66 162h-318zM797 258h96 l63 154q15 0 15 -11q0 -2 -4 -6z" />
<glyph unicode="&#xbd;" horiz-adv-x="1290" d="M-61 0l1105 1413l175 -6q-10 -37 -252.5 -348t-483.5 -612t-360 -447h-184zM80 770l235 643l148 8q0 -17 -90.5 -253.5t-151.5 -391.5zM553 35l100 110q63 8 109 33q63 37 134.5 91.5t125 114t53.5 101.5q0 45 -49 45q-45 0 -90.5 -24.5t-109 -69t-95.5 -59.5l4 147 q7 19 114.5 82.5t182.5 63.5q83 0 135 -49t52 -125q0 -96 -65 -171t-169 -157h207l-57 -139h-414l-162 -49z" />
<glyph unicode="&#xbe;" horiz-adv-x="1413" d="M88 977q28 -7 68.5 -17.5t78 -15t91.5 -4.5q77 0 110 9.5t33 43.5q0 40 -26.5 54t-80.5 14q-31 0 -51.5 -0.5t-46.5 -1.5l80 147q7 -1 23 -2.5t36 -1.5q125 0 125 66q0 12 -14 14t-68 4q-32 0 -47 -0.5t-37 -1.5t-49.5 -2t-54.5 -2l55 135q4 0 37.5 4t73.5 4 q117 0 184.5 -40t67.5 -115q0 -55 -30 -95.5t-75 -62.5q21 -25 31 -45.5t10 -67.5q0 -106 -78.5 -155t-191.5 -49q-148 0 -215 36zM92 0l1106 1413l174 -6q-7 -28 -173 -245.5t-414.5 -529t-345 -430.5t-163.5 -202h-184zM602 121l39 125l498 368l125 4l-142 -360h76 l-43 -137h-86l-41 -129l-174 -33l66 162h-318zM879 258h96l63 154q15 0 15 -11q0 -2 -4 -6z" />
<glyph unicode="&#xbf;" horiz-adv-x="1018" d="M-47 -180q0 96 70.5 184t219 219t222.5 209t102 168l203 53q0 -122 -80.5 -232.5t-193.5 -209.5t-222.5 -199t-109.5 -157q0 -66 61 -66q54 0 129.5 33t150.5 77.5t141.5 89t86.5 56.5l-18 -227q-8 -6 -54 -39t-118.5 -72t-157 -67.5t-166.5 -28.5q-128 0 -197 61 t-69 148zM586 877q0 60 41.5 105.5t101.5 45.5q46 0 81.5 -29t54 -66.5t18.5 -58.5q0 -64 -46.5 -111.5t-101.5 -47.5q-58 0 -103.5 44t-45.5 118z" />
<glyph unicode="&#xc0;" horiz-adv-x="1536" d="M-4 342l100 199l217 4q17 94 109 238t227.5 285.5t287 236t277.5 94.5q75 0 124 -26.5t78.5 -73.5t41.5 -105t12 -125q0 -130 -62 -351t-143 -431t-126 -287l-248 -2l145 344h-528q-21 -26 -25 -43.5t-4 -77.5q0 -75 7 -140t19.5 -121.5t26 -104t13.5 -50.5 q-53 8 -106.5 16.5t-106.5 16.5q-5 27 -18.5 69t-23 82t-18.5 124q0 155 4 229h-280zM547 545l551 4q29 42 66 133t62 193.5t25 179.5q0 50 -24.5 83t-67.5 33q-71 0 -183 -88t-227.5 -232.5t-201.5 -305.5zM902 1741q0 45 75 45q35 0 57.5 -5t45 -23t59 -68.5t74.5 -120.5 q31 -56 31 -72t-13 -26.5t-28 -10.5q-18 0 -95 58.5t-141.5 125.5t-64.5 97z" />
<glyph unicode="&#xc1;" horiz-adv-x="1536" d="M-4 342l100 199l217 4q17 94 109 238t227.5 285.5t287 236t277.5 94.5q75 0 124 -26.5t78.5 -73.5t41.5 -105t12 -125q0 -130 -62 -351t-143 -431t-126 -287l-248 -2l145 344h-528q-21 -26 -25 -43.5t-4 -77.5q0 -75 7 -140t19.5 -121.5t26 -104t13.5 -50.5 q-53 8 -106.5 16.5t-106.5 16.5q-5 27 -18.5 69t-23 82t-18.5 124q0 155 4 229h-280zM547 545l551 4q29 42 66 133t62 193.5t25 179.5q0 50 -24.5 83t-67.5 33q-71 0 -183 -88t-227.5 -232.5t-201.5 -305.5zM1231 1503q0 19 31 72q61 107 98.5 151.5t64.5 55t72 10.5 q76 0 76 -45q0 -30 -64.5 -97t-141.5 -125.5t-95 -58.5q-15 0 -28 10.5t-13 26.5z" />
<glyph unicode="&#xc2;" horiz-adv-x="1536" d="M-4 342l100 199l217 4q17 94 109 238t227.5 285.5t287 236t277.5 94.5q75 0 124 -26.5t78.5 -73.5t41.5 -105t12 -125q0 -130 -62 -351t-143 -431t-126 -287l-248 -2l145 344h-528q-21 -26 -25 -43.5t-4 -77.5q0 -75 7 -140t19.5 -121.5t26 -104t13.5 -50.5 q-53 8 -106.5 16.5t-106.5 16.5q-5 27 -18.5 69t-23 82t-18.5 124q0 155 4 229h-280zM547 545l551 4q29 42 66 133t62 193.5t25 179.5q0 50 -24.5 83t-67.5 33q-71 0 -183 -88t-227.5 -232.5t-201.5 -305.5zM991 1536q0 16 13 49q22 25 73 77.5t116 103t110 50.5 q36 0 55 -24q16 -22 38.5 -79t42 -116.5t19.5 -63.5q0 -17 -11.5 -28.5t-26.5 -11.5q-56 0 -164 145q-155 -141 -222 -141q-18 0 -30.5 11.5t-12.5 27.5z" />
<glyph unicode="&#xc3;" horiz-adv-x="1536" d="M-4 342l100 199l217 4q17 94 109 238t227.5 285.5t287 236t277.5 94.5q75 0 124 -26.5t78.5 -73.5t41.5 -105t12 -125q0 -130 -62 -351t-143 -431t-126 -287l-248 -2l145 344h-528q-21 -26 -25 -43.5t-4 -77.5q0 -75 7 -140t19.5 -121.5t26 -104t13.5 -50.5 q-53 8 -106.5 16.5t-106.5 16.5q-5 27 -18.5 69t-23 82t-18.5 124q0 155 4 229h-280zM547 545l551 4q29 42 66 133t62 193.5t25 179.5q0 50 -24.5 83t-67.5 33q-71 0 -183 -88t-227.5 -232.5t-201.5 -305.5zM908 1565q0 27 32 74.5t91 85t139 37.5q43 0 116 -32t87 -32 q16 0 58 26.5t54 26.5q35 0 35 -39q0 -40 -26 -79.5t-68 -65t-84 -25.5q-25 0 -71.5 19.5l-93 39t-71.5 19.5q-29 0 -45 -11t-58.5 -42t-61.5 -31q-33 0 -33 29z" />
<glyph unicode="&#xc4;" horiz-adv-x="1536" d="M-4 342l100 199l217 4q17 94 109 238t227.5 285.5t287 236t277.5 94.5q75 0 124 -26.5t78.5 -73.5t41.5 -105t12 -125q0 -130 -62 -351t-143 -431t-126 -287l-248 -2l145 344h-528q-21 -26 -25 -43.5t-4 -77.5q0 -75 7 -140t19.5 -121.5t26 -104t13.5 -50.5 q-53 8 -106.5 16.5t-106.5 16.5q-5 27 -18.5 69t-23 82t-18.5 124q0 155 4 229h-280zM547 545l551 4q29 42 66 133t62 193.5t25 179.5q0 50 -24.5 83t-67.5 33q-71 0 -183 -88t-227.5 -232.5t-201.5 -305.5zM991 1567q0 8 4.5 18.5t12 23.5t10.5 20q13 23 41.5 36t60.5 13 q33 0 54.5 -12.5t21.5 -34.5q0 -21 -30 -68t-68 -47q-62 0 -84.5 8t-22.5 43zM1274 1553q0 11 4.5 22t13 25t11.5 20q10 21 34.5 37.5t47.5 16.5q51 0 75.5 -8t24.5 -42q0 -22 -29.5 -65t-81.5 -43q-55 0 -77.5 5.5t-22.5 31.5z" />
<glyph unicode="&#xc5;" horiz-adv-x="1536" d="M-4 342l100 199l217 4q17 94 109 238t227.5 285.5t287 236t277.5 94.5q75 0 124 -26.5t78.5 -73.5t41.5 -105t12 -125q0 -130 -62 -351t-143 -431t-126 -287l-248 -2l145 344h-528q-21 -26 -25 -43.5t-4 -77.5q0 -75 7 -140t19.5 -121.5t26 -104t13.5 -50.5 q-53 8 -106.5 16.5t-106.5 16.5q-5 27 -18.5 69t-23 82t-18.5 124q0 155 4 229h-280zM547 545l551 4q29 42 66 133t62 193.5t25 179.5q0 50 -24.5 83t-67.5 33q-71 0 -183 -88t-227.5 -232.5t-201.5 -305.5zM1053 1614q0 77 57.5 136.5t134.5 59.5q62 0 100.5 -40t38.5 -107 q0 -50 -26.5 -95t-70 -72.5t-91.5 -27.5q-64 0 -103.5 41.5t-39.5 104.5zM1141 1593q0 -25 18 -45t41 -20q42 0 82.5 41.5t40.5 85.5q0 30 -18.5 47.5t-49.5 17.5q-41 0 -77.5 -40.5t-36.5 -86.5z" />
<glyph unicode="&#xc6;" horiz-adv-x="2341" d="M-4 342l100 199l217 4q17 94 109 238t227.5 285.5t287 236t277.5 94.5q182 0 236 -174q80 59 173.5 103t183.5 67.5t161 23.5q58 0 111.5 -14t99 -44t71 -71.5t25.5 -93.5q0 -119 -154.5 -248t-273.5 -192l-178 96q37 34 94 74t127 89t108 89t38 74q0 20 -20 38.5 t-58 18.5q-42 0 -171 -56t-232 -135t-103 -155q0 -46 16.5 -76.5t59.5 -101t43 -97.5q0 -31 -70.5 -86t-197.5 -137q-19 -53 -39.5 -105.5t-34.5 -90.5l868 2l-72 -197h-886q-125 0 -228.5 36.5t-103.5 147.5q0 69 96 158h-395q-21 -26 -25 -43.5t-4 -77.5q0 -75 7 -140 t19.5 -121.5t26 -104t13.5 -50.5q-53 8 -106.5 16.5t-106.5 16.5q-5 27 -18.5 69t-23 82t-18.5 124q0 155 4 229h-280zM547 545l551 4q25 35 63.5 125.5t64 191.5t25.5 189q0 50 -24.5 83t-67.5 33q-71 0 -183 -88t-227.5 -232.5t-201.5 -305.5z" />
<glyph unicode="&#xc7;" horiz-adv-x="1485" d="M59 324q0 133 107.5 324.5t282 373.5t374.5 298t379 116q64 0 119.5 -28t89 -77.5t33.5 -111.5q0 -112 -87.5 -243t-217 -251.5t-239.5 -195t-140 -74.5q-1 0 -59 13.5t-103.5 23.5t-71.5 16q13 17 149 116.5t250.5 190t206 188t91.5 160.5q0 64 -82 64 q-68 0 -215.5 -91.5t-297.5 -228t-256.5 -291.5t-107.5 -278q0 -85 49 -111t103 -26h604l-154 -201h-479q-328 0 -328 324zM242 -311q0 7 14.5 22.5t34.5 18.5q73 13 109 32.5t36 51.5q0 24 -10.5 33t-44.5 12q-47 3 -47 30q0 35 45 82l41 43h121q-40 -43 -78 -102 q75 0 112 -15.5t37 -64.5q0 -68 -81 -117t-193 -49q-96 0 -96 23z" />
<glyph unicode="&#xc8;" horiz-adv-x="1534" d="M-12 184q0 75 91 154t245 186t161 133q-7 26 -29 70.5t-33 78t-11 77.5q0 109 74 205.5t195.5 172.5t247 117t220.5 41q57 0 110 -14t99 -43.5t72 -71.5t26 -94q0 -119 -154.5 -248t-273.5 -192l-178 96q32 31 91.5 72.5t131.5 93t108 89t36 71.5q0 20 -20 38.5t-58 18.5 q-42 0 -171 -56t-232 -135t-103 -155q0 -46 16.5 -76.5t59.5 -101t43 -97.5q0 -38 -65 -85t-243 -164.5t-178 -139.5q0 -16 3.5 -23t15.5 -7l993 2l-72 -197h-989q-74 0 -151.5 36t-77.5 148zM840 1772q0 45 75 45q35 0 57.5 -5t45 -23t59 -68.5t74.5 -120.5q31 -56 31 -72 t-13 -26.5t-28 -10.5q-18 0 -95 58.5t-141.5 125.5t-64.5 97z" />
<glyph unicode="&#xc9;" horiz-adv-x="1534" d="M-12 184q0 75 91 154t245 186t161 133q-7 26 -29 70.5t-33 78t-11 77.5q0 109 74 205.5t195.5 172.5t247 117t220.5 41q57 0 110 -14t99 -43.5t72 -71.5t26 -94q0 -119 -154.5 -248t-273.5 -192l-178 96q32 31 91.5 72.5t131.5 93t108 89t36 71.5q0 20 -20 38.5t-58 18.5 q-42 0 -171 -56t-232 -135t-103 -155q0 -46 16.5 -76.5t59.5 -101t43 -97.5q0 -38 -65 -85t-243 -164.5t-178 -139.5q0 -16 3.5 -23t15.5 -7l993 2l-72 -197h-989q-74 0 -151.5 36t-77.5 148zM1181 1516q0 19 31 72q61 107 98.5 151.5t64.5 55t72 10.5q76 0 76 -45 q0 -30 -64.5 -97t-141.5 -125.5t-95 -58.5q-15 0 -28 10.5t-13 26.5z" />
<glyph unicode="&#xca;" horiz-adv-x="1534" d="M-12 184q0 75 91 154t245 186t161 133q-7 26 -29 70.5t-33 78t-11 77.5q0 109 74 205.5t195.5 172.5t247 117t220.5 41q57 0 110 -14t99 -43.5t72 -71.5t26 -94q0 -119 -154.5 -248t-273.5 -192l-178 96q32 31 91.5 72.5t131.5 93t108 89t36 71.5q0 20 -20 38.5t-58 18.5 q-42 0 -171 -56t-232 -135t-103 -155q0 -46 16.5 -76.5t59.5 -101t43 -97.5q0 -38 -65 -85t-243 -164.5t-178 -139.5q0 -16 3.5 -23t15.5 -7l993 2l-72 -197h-989q-74 0 -151.5 36t-77.5 148zM962 1549q0 16 13 49q22 25 73 77.5t116 103t110 50.5q36 0 55 -24 q16 -22 38.5 -79t42 -116.5t19.5 -63.5q0 -17 -11.5 -28.5t-26.5 -11.5q-56 0 -164 145q-155 -141 -222 -141q-18 0 -30.5 11.5t-12.5 27.5z" />
<glyph unicode="&#xcb;" horiz-adv-x="1534" d="M-12 184q0 75 91 154t245 186t161 133q-7 26 -29 70.5t-33 78t-11 77.5q0 109 74 205.5t195.5 172.5t247 117t220.5 41q57 0 110 -14t99 -43.5t72 -71.5t26 -94q0 -119 -154.5 -248t-273.5 -192l-178 96q32 31 91.5 72.5t131.5 93t108 89t36 71.5q0 20 -20 38.5t-58 18.5 q-42 0 -171 -56t-232 -135t-103 -155q0 -46 16.5 -76.5t59.5 -101t43 -97.5q0 -38 -65 -85t-243 -164.5t-178 -139.5q0 -16 3.5 -23t15.5 -7l993 2l-72 -197h-989q-74 0 -151.5 36t-77.5 148zM981 1556q0 8 4.5 18.5t12 23.5t10.5 20q13 23 41.5 36t60.5 13q33 0 54.5 -12.5 t21.5 -34.5q0 -21 -30 -68t-68 -47q-62 0 -84.5 8t-22.5 43zM1264 1542q0 11 4.5 22t13 25t11.5 20q10 21 34.5 37.5t47.5 16.5q51 0 75.5 -8t24.5 -42q0 -22 -29.5 -65t-81.5 -43q-55 0 -77.5 5.5t-22.5 31.5z" />
<glyph unicode="&#xcc;" horiz-adv-x="1511" d="M-106 -2l118 203l434 -2q109 0 188.5 30.5t132.5 82t90.5 117.5t76.5 159q75 177 119 281t70 166t33 89.5t7 51.5q-3 9 -10.5 21.5t-22.5 12.5q-31 0 -127.5 -49.5t-189.5 -115.5t-164 -146t-71 -145q0 -52 37.5 -121t62.5 -105l-154 -143q-37 56 -93 166t-56 197 q0 117 91 235.5t231 218t276.5 157.5t218.5 58q100 0 148.5 -52.5t48.5 -129.5q0 -67 -35.5 -184t-96 -260t-133.5 -290.5t-153 -287.5q-36 -60 -115.5 -108.5t-184 -77.5t-210.5 -29h-567zM914 1766q0 45 75 45q35 0 57.5 -5t45 -23t59 -68.5t74.5 -120.5q31 -56 31 -72 t-13 -26.5t-28 -10.5q-18 0 -95 58.5t-141.5 125.5t-64.5 97z" />
<glyph unicode="&#xcd;" horiz-adv-x="1511" d="M-106 -2l118 203l434 -2q109 0 188.5 30.5t132.5 82t90.5 117.5t76.5 159q75 177 119 281t70 166t33 89.5t7 51.5q-3 9 -10.5 21.5t-22.5 12.5q-31 0 -127.5 -49.5t-189.5 -115.5t-164 -146t-71 -145q0 -52 37.5 -121t62.5 -105l-154 -143q-37 56 -93 166t-56 197 q0 117 91 235.5t231 218t276.5 157.5t218.5 58q100 0 148.5 -52.5t48.5 -129.5q0 -67 -35.5 -184t-96 -260t-133.5 -290.5t-153 -287.5q-36 -60 -115.5 -108.5t-184 -77.5t-210.5 -29h-567zM1210 1516q0 19 31 72q61 107 98.5 151.5t64.5 55t72 10.5q76 0 76 -45 q0 -30 -64.5 -97t-141.5 -125.5t-95 -58.5q-15 0 -28 10.5t-13 26.5z" />
<glyph unicode="&#xce;" horiz-adv-x="1511" d="M-106 -2l118 203l434 -2q109 0 188.5 30.5t132.5 82t90.5 117.5t76.5 159q75 177 119 281t70 166t33 89.5t7 51.5q-3 9 -10.5 21.5t-22.5 12.5q-31 0 -127.5 -49.5t-189.5 -115.5t-164 -146t-71 -145q0 -52 37.5 -121t62.5 -105l-154 -143q-37 56 -93 166t-56 197 q0 117 91 235.5t231 218t276.5 157.5t218.5 58q100 0 148.5 -52.5t48.5 -129.5q0 -67 -35.5 -184t-96 -260t-133.5 -290.5t-153 -287.5q-36 -60 -115.5 -108.5t-184 -77.5t-210.5 -29h-567zM1005 1559q0 16 13 49q22 25 73 77.5t116 103t110 50.5q36 0 55 -24 q16 -22 38.5 -79t42 -116.5t19.5 -63.5q0 -17 -11.5 -28.5t-26.5 -11.5q-56 0 -164 145q-155 -141 -222 -141q-18 0 -30.5 11.5t-12.5 27.5z" />
<glyph unicode="&#xcf;" horiz-adv-x="1511" d="M-106 -2l118 203l434 -2q109 0 188.5 30.5t132.5 82t90.5 117.5t76.5 159q75 177 119 281t70 166t33 89.5t7 51.5q-3 9 -10.5 21.5t-22.5 12.5q-31 0 -127.5 -49.5t-189.5 -115.5t-164 -146t-71 -145q0 -52 37.5 -121t62.5 -105l-154 -143q-37 56 -93 166t-56 197 q0 117 91 235.5t231 218t276.5 157.5t218.5 58q100 0 148.5 -52.5t48.5 -129.5q0 -67 -35.5 -184t-96 -260t-133.5 -290.5t-153 -287.5q-36 -60 -115.5 -108.5t-184 -77.5t-210.5 -29h-567zM1032 1556q0 8 4.5 18.5t12 23.5t10.5 20q13 23 41.5 36t60.5 13q33 0 54.5 -12.5 t21.5 -34.5q0 -21 -30 -68t-68 -47q-62 0 -84.5 8t-22.5 43zM1315 1542q0 11 4.5 22t13 25t11.5 20q10 21 34.5 37.5t47.5 16.5q51 0 75.5 -8t24.5 -42q0 -22 -29.5 -65t-81.5 -43q-55 0 -77.5 5.5t-22.5 31.5z" />
<glyph unicode="&#xd0;" horiz-adv-x="1696" d="M29 369l51 223q30 14 98 44t189 77q29 71 53 131t33 82l239 69l-82 -196q265 78 420 78l-35 -203q-130 0 -487 -121l-125 -303q4 -6 4 -14q0 -11 29 -11q54 2 212.5 77t339 199.5t306 276.5t125.5 301q0 83 -37 106t-98 23q-109 0 -348.5 -68t-434.5 -135.5t-286 -101.5 l51 223q77 31 251.5 94.5t407.5 127t393 63.5q322 0 322 -301q0 -190 -144 -389.5t-368 -369.5t-455 -272t-385 -102q-55 0 -89 27t-34 74q0 52 125 387q-106 -40 -160.5 -62.5t-80.5 -33.5z" />
<glyph unicode="&#xd1;" horiz-adv-x="1810" d="M-68 0q14 23 57 64t113.5 116t178 207t299.5 393q252 344 383 578l227 41q-18 -48 -54.5 -149t-96.5 -287t-98 -347.5t-38 -259.5q0 -22 6 -37q297 260 711 1104l131 -190q0 -9 -30 -76.5t-75 -154.5t-113 -203.5t-151 -235.5q-47 -66 -123.5 -163.5t-157.5 -186 t-161.5 -151t-136.5 -62.5q-45 0 -67.5 22t-29 61.5t-6.5 106.5q0 135 13.5 221t38.5 183.5t32 134.5q-20 -32 -64 -102.5t-109 -159.5t-167.5 -211t-230.5 -256h-281zM1153 1544q0 27 32 74.5t91 85t139 37.5q43 0 116 -32t87 -32q16 0 58 26.5t54 26.5q35 0 35 -39 q0 -40 -26 -79.5t-68 -65t-84 -25.5q-25 0 -71.5 19.5l-93 39t-71.5 19.5q-29 0 -45 -11t-58.5 -42t-61.5 -31q-33 0 -33 29z" />
<glyph unicode="&#xd2;" horiz-adv-x="1622" d="M59 514q0 166 86.5 326t226 287t297 200.5t294.5 73.5q141 0 235 -53.5t143 -124.5t69 -130.5t20 -68.5h129l49 -215h-172q-40 -180 -174 -373t-324.5 -320.5t-390.5 -127.5q-28 0 -99 15.5t-162.5 67.5t-159 160.5t-67.5 282.5zM256 502q0 -78 40 -148t108.5 -113.5 t146.5 -43.5q142 0 264 78.5t205.5 186.5t132.5 206t49 123q-12 11 -53.5 22t-64 21t-41.5 43.5t-19 97.5q0 29 6 53t18.5 46.5t25.5 45.5t24 45q-5 2 -28.5 13.5t-47.5 15.5t-59 4q-137 0 -265.5 -74.5t-228.5 -190.5t-156.5 -234.5t-56.5 -196.5zM637 1766q0 45 75 45 q35 0 57.5 -5t45 -23t59 -68.5t74.5 -120.5q31 -56 31 -72t-13 -26.5t-28 -10.5q-18 0 -95 58.5t-141.5 125.5t-64.5 97z" />
<glyph unicode="&#xd3;" horiz-adv-x="1622" d="M59 514q0 166 86.5 326t226 287t297 200.5t294.5 73.5q141 0 235 -53.5t143 -124.5t69 -130.5t20 -68.5h129l49 -215h-172q-40 -180 -174 -373t-324.5 -320.5t-390.5 -127.5q-28 0 -99 15.5t-162.5 67.5t-159 160.5t-67.5 282.5zM256 502q0 -78 40 -148t108.5 -113.5 t146.5 -43.5q142 0 264 78.5t205.5 186.5t132.5 206t49 123q-12 11 -53.5 22t-64 21t-41.5 43.5t-19 97.5q0 29 6 53t18.5 46.5t25.5 45.5t24 45q-5 2 -28.5 13.5t-47.5 15.5t-59 4q-137 0 -265.5 -74.5t-228.5 -190.5t-156.5 -234.5t-56.5 -196.5zM991 1522q0 19 31 72 q61 107 98.5 151.5t64.5 55t72 10.5q76 0 76 -45q0 -30 -64.5 -97t-141.5 -125.5t-95 -58.5q-15 0 -28 10.5t-13 26.5z" />
<glyph unicode="&#xd4;" horiz-adv-x="1622" d="M59 514q0 166 86.5 326t226 287t297 200.5t294.5 73.5q141 0 235 -53.5t143 -124.5t69 -130.5t20 -68.5h129l49 -215h-172q-40 -180 -174 -373t-324.5 -320.5t-390.5 -127.5q-28 0 -99 15.5t-162.5 67.5t-159 160.5t-67.5 282.5zM256 502q0 -78 40 -148t108.5 -113.5 t146.5 -43.5q142 0 264 78.5t205.5 186.5t132.5 206t49 123q-12 11 -53.5 22t-64 21t-41.5 43.5t-19 97.5q0 29 6 53t18.5 46.5t25.5 45.5t24 45q-5 2 -28.5 13.5t-47.5 15.5t-59 4q-137 0 -265.5 -74.5t-228.5 -190.5t-156.5 -234.5t-56.5 -196.5zM765 1536q0 16 13 49 q22 25 73 77.5t116 103t110 50.5q36 0 55 -24q16 -22 38.5 -79t42 -116.5t19.5 -63.5q0 -17 -11.5 -28.5t-26.5 -11.5q-56 0 -164 145q-155 -141 -222 -141q-18 0 -30.5 11.5t-12.5 27.5z" />
<glyph unicode="&#xd5;" horiz-adv-x="1622" d="M59 514q0 166 86.5 326t226 287t297 200.5t294.5 73.5q141 0 235 -53.5t143 -124.5t69 -130.5t20 -68.5h129l49 -215h-172q-40 -180 -174 -373t-324.5 -320.5t-390.5 -127.5q-28 0 -99 15.5t-162.5 67.5t-159 160.5t-67.5 282.5zM256 502q0 -78 40 -148t108.5 -113.5 t146.5 -43.5q142 0 264 78.5t205.5 186.5t132.5 206t49 123q-12 11 -53.5 22t-64 21t-41.5 43.5t-19 97.5q0 29 6 53t18.5 46.5t25.5 45.5t24 45q-5 2 -28.5 13.5t-47.5 15.5t-59 4q-137 0 -265.5 -74.5t-228.5 -190.5t-156.5 -234.5t-56.5 -196.5zM703 1555q0 27 32 74.5 t91 85t139 37.5q43 0 116 -32t87 -32q16 0 58 26.5t54 26.5q35 0 35 -39q0 -40 -26 -79.5t-68 -65t-84 -25.5q-25 0 -71.5 19.5l-93 39t-71.5 19.5q-29 0 -45 -11t-58.5 -42t-61.5 -31q-33 0 -33 29z" />
<glyph unicode="&#xd6;" horiz-adv-x="1622" d="M59 514q0 166 86.5 326t226 287t297 200.5t294.5 73.5q141 0 235 -53.5t143 -124.5t69 -130.5t20 -68.5h129l49 -215h-172q-40 -180 -174 -373t-324.5 -320.5t-390.5 -127.5q-28 0 -99 15.5t-162.5 67.5t-159 160.5t-67.5 282.5zM256 502q0 -78 40 -148t108.5 -113.5 t146.5 -43.5q142 0 264 78.5t205.5 186.5t132.5 206t49 123q-12 11 -53.5 22t-64 21t-41.5 43.5t-19 97.5q0 29 6 53t18.5 46.5t25.5 45.5t24 45q-5 2 -28.5 13.5t-47.5 15.5t-59 4q-137 0 -265.5 -74.5t-228.5 -190.5t-156.5 -234.5t-56.5 -196.5zM745 1546q0 8 4.5 18.5 t12 23.5t10.5 20q13 23 41.5 36t60.5 13q33 0 54.5 -12.5t21.5 -34.5q0 -21 -30 -68t-68 -47q-62 0 -84.5 8t-22.5 43zM1028 1532q0 11 4.5 22t13 25t11.5 20q10 21 34.5 37.5t47.5 16.5q51 0 75.5 -8t24.5 -42q0 -22 -29.5 -65t-81.5 -43q-55 0 -77.5 5.5t-22.5 31.5z" />
<glyph unicode="&#xd8;" horiz-adv-x="1622" d="M-12 4l174 174q-103 134 -103 336q0 166 86.5 326t226 287t297 200.5t294.5 73.5q85 0 154 -21.5t120 -56.5l86 88l180 2q-22 -22 -53.5 -52.5t-120.5 -123.5q34 -42 56.5 -89t32.5 -81.5t12 -42.5h129l49 -215h-172q-40 -180 -174 -373t-324.5 -320.5t-390.5 -127.5 q-32 0 -120 21.5t-173 82.5q-24 -26 -41 -43.5t-28 -28.5t-17 -16h-180zM256 502q0 -89 53 -168l783 833q-37 19 -55 25t-74 6q-137 0 -265.5 -74.5t-228.5 -190.5t-156.5 -234.5t-56.5 -196.5zM397 244q73 -47 154 -47q142 0 264 78.5t205.5 186.5t132.5 206t49 123 q-15 13 -59.5 23.5t-73.5 31t-39 69.5q-118 -125 -188 -199t-161 -170t-147 -156.5t-137 -145.5z" />
<glyph unicode="&#xd9;" horiz-adv-x="1460" d="M43 225q0 75 41.5 204t118.5 318t108 269.5t31 109.5q0 99 -201 99l133 202q52 0 106.5 -17t99.5 -50.5t71.5 -83.5t26.5 -113q0 -59 -44.5 -186t-131.5 -336t-116.5 -284.5t-29.5 -112.5q0 -62 63 -62q49 1 120 43t140 103.5t128.5 133t85.5 124.5q62 125 100.5 209 t97.5 218t85 189t75 146l274 32q-23 -102 -77 -203.5t-173 -306.5t-171 -330t-52 -241q0 -100 84 -100h148l-90 -201h-119q-105 0 -161 47.5t-56 159.5q0 17 4 57q-42 -44 -83.5 -88t-98.5 -91.5t-125.5 -78.5t-143.5 -31q-103 0 -185.5 73.5t-82.5 178.5zM564 1686 q0 45 75 45q35 0 57.5 -5t45 -23t59 -68.5t74.5 -120.5q31 -56 31 -72t-13 -26.5t-28 -10.5q-18 0 -95 58.5t-141.5 125.5t-64.5 97z" />
<glyph unicode="&#xda;" horiz-adv-x="1460" d="M43 225q0 75 41.5 204t118.5 318t108 269.5t31 109.5q0 99 -201 99l133 202q52 0 106.5 -17t99.5 -50.5t71.5 -83.5t26.5 -113q0 -59 -44.5 -186t-131.5 -336t-116.5 -284.5t-29.5 -112.5q0 -62 63 -62q49 1 120 43t140 103.5t128.5 133t85.5 124.5q62 125 100.5 209 t97.5 218t85 189t75 146l274 32q-23 -102 -77 -203.5t-173 -306.5t-171 -330t-52 -241q0 -100 84 -100h148l-90 -201h-119q-105 0 -161 47.5t-56 159.5q0 17 4 57q-42 -44 -83.5 -88t-98.5 -91.5t-125.5 -78.5t-143.5 -31q-103 0 -185.5 73.5t-82.5 178.5zM801 1417 q0 19 31 72q61 107 98.5 151.5t64.5 55t72 10.5q76 0 76 -45q0 -30 -64.5 -97t-141.5 -125.5t-95 -58.5q-15 0 -28 10.5t-13 26.5z" />
<glyph unicode="&#xdb;" horiz-adv-x="1460" d="M43 225q0 75 41.5 204t118.5 318t108 269.5t31 109.5q0 99 -201 99l133 202q52 0 106.5 -17t99.5 -50.5t71.5 -83.5t26.5 -113q0 -59 -44.5 -186t-131.5 -336t-116.5 -284.5t-29.5 -112.5q0 -62 63 -62q49 1 120 43t140 103.5t128.5 133t85.5 124.5q62 125 100.5 209 t97.5 218t85 189t75 146l274 32q-23 -102 -77 -203.5t-173 -306.5t-171 -330t-52 -241q0 -100 84 -100h148l-90 -201h-119q-105 0 -161 47.5t-56 159.5q0 17 4 57q-42 -44 -83.5 -88t-98.5 -91.5t-125.5 -78.5t-143.5 -31q-103 0 -185.5 73.5t-82.5 178.5zM663 1475 q0 16 13 49q22 25 73 77.5t116 103t110 50.5q36 0 55 -24q16 -22 38.5 -79t42 -116.5t19.5 -63.5q0 -17 -11.5 -28.5t-26.5 -11.5q-56 0 -164 145q-155 -141 -222 -141q-18 0 -30.5 11.5t-12.5 27.5z" />
<glyph unicode="&#xdc;" horiz-adv-x="1460" d="M43 225q0 75 41.5 204t118.5 318t108 269.5t31 109.5q0 99 -201 99l133 202q52 0 106.5 -17t99.5 -50.5t71.5 -83.5t26.5 -113q0 -59 -44.5 -186t-131.5 -336t-116.5 -284.5t-29.5 -112.5q0 -62 63 -62q49 1 120 43t140 103.5t128.5 133t85.5 124.5q62 125 100.5 209 t97.5 218t85 189t75 146l274 32q-23 -102 -77 -203.5t-173 -306.5t-171 -330t-52 -241q0 -100 84 -100h148l-90 -201h-119q-105 0 -161 47.5t-56 159.5q0 17 4 57q-42 -44 -83.5 -88t-98.5 -91.5t-125.5 -78.5t-143.5 -31q-103 0 -185.5 73.5t-82.5 178.5zM622 1474 q0 8 4.5 18.5t12 23.5t10.5 20q13 23 41.5 36t60.5 13q33 0 54.5 -12.5t21.5 -34.5q0 -21 -30 -68t-68 -47q-62 0 -84.5 8t-22.5 43zM905 1460q0 11 4.5 22t13 25t11.5 20q10 21 34.5 37.5t47.5 16.5q51 0 75.5 -8t24.5 -42q0 -22 -29.5 -65t-81.5 -43q-55 0 -77.5 5.5 t-22.5 31.5z" />
<glyph unicode="&#xdd;" horiz-adv-x="1374" d="M35 193q0 75 48.5 209t163.5 427.5t115 329.5q0 55 -45 55h-172l68 185h184q74 0 130.5 -33t56.5 -123q0 -54 -46.5 -193t-105.5 -290t-122.5 -316t-63.5 -194q0 -57 59 -57q68 0 181 102t215.5 239t138.5 224q38 92 87.5 227t83.5 210t83 142l301 105 q-15 -59 -66.5 -167.5t-126.5 -243.5t-147 -259q-31 -51 -48.5 -98t-31 -96t-24 -95t-19.5 -75q-46 -137 -98.5 -270.5t-157.5 -330.5t-258 -425h-221q37 61 102 165.5t133.5 221.5t128 235t76.5 184q-24 -23 -80 -69.5t-135.5 -92.5t-145.5 -46q-115 0 -178 62t-63 151z M782 1423q0 19 31 72q61 107 98.5 151.5t64.5 55t72 10.5q76 0 76 -45q0 -30 -64.5 -97t-141.5 -125.5t-95 -58.5q-15 0 -28 10.5t-13 26.5z" />
<glyph unicode="&#xdf;" horiz-adv-x="1430" d="M6 -530q15 135 55.5 455.5t146.5 659.5t326.5 584.5t571.5 245.5q128 0 198 -63t70 -176q0 -85 -55 -186.5t-135 -199t-163.5 -185t-88.5 -93.5q8 -31 71.5 -74t100.5 -87.5t37 -133.5q0 -126 -112.5 -172.5t-256.5 -46.5h-319l137 201h135q79 0 124.5 12.5t45.5 50.5 q0 27 -45.5 79t-112.5 121t-67 79q0 2 83.5 89t164 176t145.5 182t65 142q0 37 -18 45.5t-53 8.5q-232 0 -385.5 -209.5t-233.5 -489t-134 -614t-58 -348.5q-51 -13 -134 -33t-106 -20z" />
<glyph unicode="&#xe0;" horiz-adv-x="848" d="M45 158q0 72 49.5 160.5t141.5 165t222 125t285 48.5q26 0 78 -4q0 -3 -39.5 -61.5t-66.5 -97.5q-135 -4 -246.5 -51.5t-175.5 -114.5t-64 -123q0 -36 17 -49t51 -13q65 0 98.5 37.5t61.5 109t43 95.5l180 29q-23 -44 -58.5 -118.5t-35.5 -94.5q0 -31 13 -41t44 -10h96 l-61 -154h-115q-57 0 -82 11t-36.5 27.5t-16.5 16.5q-1 -4 -8.5 -14t-23.5 -20t-52 -18.5t-90 -8.5q-106 0 -157.5 40t-51.5 128zM263 1047q0 45 75 45q35 0 57.5 -5t45 -23t59 -68.5t74.5 -120.5q31 -56 31 -72t-13 -26.5t-28 -10.5q-18 0 -95 58.5t-141.5 125.5t-64.5 97z " />
<glyph unicode="&#xe1;" horiz-adv-x="848" d="M45 158q0 72 49.5 160.5t141.5 165t222 125t285 48.5q26 0 78 -4q0 -3 -39.5 -61.5t-66.5 -97.5q-135 -4 -246.5 -51.5t-175.5 -114.5t-64 -123q0 -36 17 -49t51 -13q65 0 98.5 37.5t61.5 109t43 95.5l180 29q-23 -44 -58.5 -118.5t-35.5 -94.5q0 -31 13 -41t44 -10h96 l-61 -154h-115q-57 0 -82 11t-36.5 27.5t-16.5 16.5q-1 -4 -8.5 -14t-23.5 -20t-52 -18.5t-90 -8.5q-106 0 -157.5 40t-51.5 128zM456 791q0 19 31 72q61 107 98.5 151.5t64.5 55t72 10.5q76 0 76 -45q0 -30 -64.5 -97t-141.5 -125.5t-95 -58.5q-15 0 -28 10.5t-13 26.5z " />
<glyph unicode="&#xe2;" horiz-adv-x="848" d="M45 158q0 72 49.5 160.5t141.5 165t222 125t285 48.5q26 0 78 -4q0 -3 -39.5 -61.5t-66.5 -97.5q-135 -4 -246.5 -51.5t-175.5 -114.5t-64 -123q0 -36 17 -49t51 -13q65 0 98.5 37.5t61.5 109t43 95.5l180 29q-23 -44 -58.5 -118.5t-35.5 -94.5q0 -31 13 -41t44 -10h96 l-61 -154h-115q-57 0 -82 11t-36.5 27.5t-16.5 16.5q-1 -4 -8.5 -14t-23.5 -20t-52 -18.5t-90 -8.5q-106 0 -157.5 40t-51.5 128zM335 809q0 16 13 49q22 25 73 77.5t116 103t110 50.5q36 0 55 -24q16 -22 38.5 -79t42 -116.5t19.5 -63.5q0 -17 -11.5 -28.5t-26.5 -11.5 q-56 0 -164 145q-155 -141 -222 -141q-18 0 -30.5 11.5t-12.5 27.5z" />
<glyph unicode="&#xe3;" horiz-adv-x="848" d="M45 158q0 72 49.5 160.5t141.5 165t222 125t285 48.5q26 0 78 -4q0 -3 -39.5 -61.5t-66.5 -97.5q-135 -4 -246.5 -51.5t-175.5 -114.5t-64 -123q0 -36 17 -49t51 -13q65 0 98.5 37.5t61.5 109t43 95.5l180 29q-23 -44 -58.5 -118.5t-35.5 -94.5q0 -31 13 -41t44 -10h96 l-61 -154h-115q-57 0 -82 11t-36.5 27.5t-16.5 16.5q-1 -4 -8.5 -14t-23.5 -20t-52 -18.5t-90 -8.5q-106 0 -157.5 40t-51.5 128zM211 838q0 27 32 74.5t91 85t139 37.5q43 0 116 -32t87 -32q16 0 58 26.5t54 26.5q35 0 35 -39q0 -40 -26 -79.5t-68 -65t-84 -25.5 q-25 0 -71.5 19.5l-93 39t-71.5 19.5q-29 0 -45 -11t-58.5 -42t-61.5 -31q-33 0 -33 29z" />
<glyph unicode="&#xe4;" horiz-adv-x="848" d="M45 158q0 72 49.5 160.5t141.5 165t222 125t285 48.5q26 0 78 -4q0 -3 -39.5 -61.5t-66.5 -97.5q-135 -4 -246.5 -51.5t-175.5 -114.5t-64 -123q0 -36 17 -49t51 -13q65 0 98.5 37.5t61.5 109t43 95.5l180 29q-23 -44 -58.5 -118.5t-35.5 -94.5q0 -31 13 -41t44 -10h96 l-61 -154h-115q-57 0 -82 11t-36.5 27.5t-16.5 16.5q-1 -4 -8.5 -14t-23.5 -20t-52 -18.5t-90 -8.5q-106 0 -157.5 40t-51.5 128zM366 829q0 8 4.5 18.5t12 23.5t10.5 20q13 23 41.5 36t60.5 13q33 0 54.5 -12.5t21.5 -34.5q0 -21 -30 -68t-68 -47q-62 0 -84.5 8t-22.5 43z M649 815q0 11 4.5 22t13 25t11.5 20q10 21 34.5 37.5t47.5 16.5q51 0 75.5 -8t24.5 -42q0 -22 -29.5 -65t-81.5 -43q-55 0 -77.5 5.5t-22.5 31.5z" />
<glyph unicode="&#xe5;" horiz-adv-x="848" d="M45 158q0 72 49.5 160.5t141.5 165t222 125t285 48.5q26 0 78 -4q0 -3 -39.5 -61.5t-66.5 -97.5q-135 -4 -246.5 -51.5t-175.5 -114.5t-64 -123q0 -36 17 -49t51 -13q65 0 98.5 37.5t61.5 109t43 95.5l180 29q-23 -44 -58.5 -118.5t-35.5 -94.5q0 -31 13 -41t44 -10h96 l-61 -154h-115q-57 0 -82 11t-36.5 27.5t-16.5 16.5q-1 -4 -8.5 -14t-23.5 -20t-52 -18.5t-90 -8.5q-106 0 -157.5 40t-51.5 128zM500 907q0 77 57.5 136.5t134.5 59.5q62 0 100.5 -40t38.5 -107q0 -50 -26.5 -95t-70 -72.5t-91.5 -27.5q-64 0 -103.5 41.5t-39.5 104.5z M588 886q0 -25 18 -45t41 -20q42 0 82.5 41.5t40.5 85.5q0 30 -18.5 47.5t-49.5 17.5q-41 0 -77.5 -40.5t-36.5 -86.5z" />
<glyph unicode="&#xe6;" horiz-adv-x="1135" d="M45 158q0 74 47 160.5t138 164t226.5 126t301.5 48.5q82 43 157 43q73 0 124 -44.5t51 -116.5q0 -116 -96 -214t-257 -159q31 -16 164 -16q33 1 58 1.5t36 0.5l-28 -148q-86 -2 -226.5 -5t-177.5 -3q-57 0 -82 11t-36.5 27.5t-16.5 16.5q-1 -4 -8.5 -14t-23.5 -20 t-52 -18.5t-90 -8.5q-106 0 -157.5 40t-51.5 128zM229 205q0 -36 17 -49t51 -13q49 0 83 35t56 83.5t45.5 112t36.5 87.5q-127 -42 -208 -116.5t-81 -139.5zM610 258q96 34 166 79t109 91.5t39 75.5q0 28 -66 28q-12 0 -66.5 -36t-107 -97t-74.5 -141z" />
<glyph unicode="&#xe7;" horiz-adv-x="748" d="M43 188q0 72 46.5 161.5t125 170.5t173.5 131.5t181 50.5q77 0 104 -40.5t27 -110.5q0 -60 -16 -102t-27 -58l-149 -31q1 17 7 31t16 34t15 33t5 31q0 29 -9 35t-34 6q-42 0 -112.5 -58.5t-125.5 -136.5t-55 -124q0 -37 13 -49t38 -12q11 1 19.5 1.5t21.5 0.5h283 l-45 -154h-228q-150 0 -212 39t-62 151zM109 -301q0 7 14.5 22.5t34.5 18.5q73 13 109 32.5t36 51.5q0 24 -10.5 33t-44.5 12q-47 3 -47 30q0 35 45 82l41 43h121q-40 -43 -78 -102q75 0 112 -15.5t37 -64.5q0 -68 -81 -117t-193 -49q-96 0 -96 23z" />
<glyph unicode="&#xe8;" horiz-adv-x="756" d="M68 225q0 117 75.5 227.5t185.5 179t197 68.5q73 0 123.5 -45t50.5 -116q0 -116 -95 -214t-257 -159q31 -16 164 -16q33 1 58 1.5t36 0.5l-28 -148q0 -8 -222 -8q-106 0 -169.5 22t-91 71.5t-27.5 135.5zM170 1084q0 45 75 45q35 0 57.5 -5t45 -23t59 -68.5t74.5 -120.5 q31 -56 31 -72t-13 -26.5t-28 -10.5q-18 0 -95 58.5t-141.5 125.5t-64.5 97zM221 258q96 34 166 79t109 91.5t39 75.5q0 28 -66 28q-12 0 -66.5 -36t-107 -97t-74.5 -141z" />
<glyph unicode="&#xe9;" horiz-adv-x="756" d="M68 225q0 117 75.5 227.5t185.5 179t197 68.5q73 0 123.5 -45t50.5 -116q0 -116 -95 -214t-257 -159q31 -16 164 -16q33 1 58 1.5t36 0.5l-28 -148q0 -8 -222 -8q-106 0 -169.5 22t-91 71.5t-27.5 135.5zM221 258q96 34 166 79t109 91.5t39 75.5q0 28 -66 28 q-12 0 -66.5 -36t-107 -97t-74.5 -141zM475 852q0 19 31 72q61 107 98.5 151.5t64.5 55t72 10.5q76 0 76 -45q0 -30 -64.5 -97t-141.5 -125.5t-95 -58.5q-15 0 -28 10.5t-13 26.5z" />
<glyph unicode="&#xea;" horiz-adv-x="756" d="M68 225q0 117 75.5 227.5t185.5 179t197 68.5q73 0 123.5 -45t50.5 -116q0 -116 -95 -214t-257 -159q31 -16 164 -16q33 1 58 1.5t36 0.5l-28 -148q0 -8 -222 -8q-106 0 -169.5 22t-91 71.5t-27.5 135.5zM221 258q96 34 166 79t109 91.5t39 75.5q0 28 -66 28 q-12 0 -66.5 -36t-107 -97t-74.5 -141zM284 840q0 16 13 49q22 25 73 77.5t116 103t110 50.5q36 0 55 -24q16 -22 38.5 -79t42 -116.5t19.5 -63.5q0 -17 -11.5 -28.5t-26.5 -11.5q-56 0 -164 145q-155 -141 -222 -141q-18 0 -30.5 11.5t-12.5 27.5z" />
<glyph unicode="&#xeb;" horiz-adv-x="756" d="M68 225q0 117 75.5 227.5t185.5 179t197 68.5q73 0 123.5 -45t50.5 -116q0 -116 -95 -214t-257 -159q31 -16 164 -16q33 1 58 1.5t36 0.5l-28 -148q0 -8 -222 -8q-106 0 -169.5 22t-91 71.5t-27.5 135.5zM221 258q96 34 166 79t109 91.5t39 75.5q0 28 -66 28 q-12 0 -66.5 -36t-107 -97t-74.5 -141zM233 850q0 8 4.5 18.5t12 23.5t10.5 20q13 23 41.5 36t60.5 13q33 0 54.5 -12.5t21.5 -34.5q0 -21 -30 -68t-68 -47q-62 0 -84.5 8t-22.5 43zM516 836q0 11 4.5 22t13 25t11.5 20q10 21 34.5 37.5t47.5 16.5q51 0 75.5 -8t24.5 -42 q0 -22 -29.5 -65t-81.5 -43q-55 0 -77.5 5.5t-22.5 31.5z" />
<glyph unicode="&#xec;" horiz-adv-x="498" d="M23 1022q0 45 75 45q35 0 57.5 -5t45 -23t59 -68.5t74.5 -120.5q31 -56 31 -72t-13 -26.5t-28 -10.5q-18 0 -95 58.5t-141.5 125.5t-64.5 97zM33 96q0 23 42 143t82.5 224t61.5 155l191 44l-191 -480q0 -31 41 -35h90l-51 -147l-178 -4q-30 0 -59 29t-29 71z" />
<glyph unicode="&#xed;" horiz-adv-x="498" d="M33 96q0 23 42 143t82.5 224t61.5 155l191 44l-191 -480q0 -31 41 -35h90l-51 -147l-178 -4q-30 0 -59 29t-29 71zM254 778q0 19 31 72q61 107 98.5 151.5t64.5 55t72 10.5q76 0 76 -45q0 -30 -64.5 -97t-141.5 -125.5t-95 -58.5q-15 0 -28 10.5t-13 26.5z" />
<glyph unicode="&#xee;" horiz-adv-x="498" d="M33 96q0 23 42 143t82.5 224t61.5 155l191 44l-191 -480q0 -31 41 -35h90l-51 -147l-178 -4q-30 0 -59 29t-29 71zM110 789q0 16 13 49q22 25 73 77.5t116 103t110 50.5q36 0 55 -24q16 -22 38.5 -79t42 -116.5t19.5 -63.5q0 -17 -11.5 -28.5t-26.5 -11.5q-56 0 -164 145 q-155 -141 -222 -141q-18 0 -30.5 11.5t-12.5 27.5z" />
<glyph unicode="&#xef;" horiz-adv-x="498" d="M33 96q0 23 42 143t82.5 224t61.5 155l191 44l-191 -480q0 -31 41 -35h90l-51 -147l-178 -4q-30 0 -59 29t-29 71zM100 799q0 8 4.5 18.5t12 23.5t10.5 20q13 23 41.5 36t60.5 13q33 0 54.5 -12.5t21.5 -34.5q0 -21 -30 -68t-68 -47q-62 0 -84.5 8t-22.5 43zM383 785 q0 11 4.5 22t13 25t11.5 20q10 21 34.5 37.5t47.5 16.5q51 0 75.5 -8t24.5 -42q0 -22 -29.5 -65t-81.5 -43q-55 0 -77.5 5.5t-22.5 31.5z" />
<glyph unicode="&#xf1;" horiz-adv-x="825" d="M-6 0l233 590q3 3 73 18t116 25q-15 -24 -37.5 -74t-22.5 -94q54 52 153.5 115t152.5 63q40 0 68 -28t28 -62q0 -7 -4 -25l-123 -350q10 -26 19.5 -32t45.5 -7h70l-43 -139h-207q-47 0 -66.5 14t-19.5 64q0 30 49 144t78 200q-3 1 -7.5 9.5t-10.5 8.5q-42 0 -101.5 -58.5 t-114 -134t-109.5 -159t-62 -88.5h-158zM211 797q0 27 32 74.5t91 85t139 37.5q43 0 116 -32t87 -32q16 0 58 26.5t54 26.5q35 0 35 -39q0 -40 -26 -79.5t-68 -65t-84 -25.5q-25 0 -71.5 19.5l-93 39t-71.5 19.5q-29 0 -45 -11t-58.5 -42t-61.5 -31q-33 0 -33 29z" />
<glyph unicode="&#xf2;" d="M43 231q0 135 72 235.5t169.5 155t157.5 54.5q118 0 173.5 -64.5t60.5 -119.5h110l-43 -154h-63q-11 -40 -49 -122t-122 -163.5t-208 -81.5q-83 0 -141 38t-87.5 98t-29.5 124zM115 1047q0 45 75 45q35 0 57.5 -5t45 -23t59 -68.5t74.5 -120.5q31 -56 31 -72t-13 -26.5 t-28 -10.5q-18 0 -95 58.5t-141.5 125.5t-64.5 97zM201 244q0 -39 24.5 -77t75.5 -38q53 0 98.5 35t75 81t29.5 66q0 17 -29 28t-49 43.5t-20 127.5q-99 -46 -152 -133t-53 -133z" />
<glyph unicode="&#xf3;" d="M43 231q0 135 72 235.5t169.5 155t157.5 54.5q118 0 173.5 -64.5t60.5 -119.5h110l-43 -154h-63q-11 -40 -49 -122t-122 -163.5t-208 -81.5q-83 0 -141 38t-87.5 98t-29.5 124zM201 244q0 -39 24.5 -77t75.5 -38q53 0 98.5 35t75 81t29.5 66q0 17 -29 28t-49 43.5 t-20 127.5q-99 -46 -152 -133t-53 -133zM420 809q0 19 31 72q61 107 98.5 151.5t64.5 55t72 10.5q76 0 76 -45q0 -30 -64.5 -97t-141.5 -125.5t-95 -58.5q-15 0 -28 10.5t-13 26.5z" />
<glyph unicode="&#xf4;" d="M43 231q0 135 72 235.5t169.5 155t157.5 54.5q118 0 173.5 -64.5t60.5 -119.5h110l-43 -154h-63q-11 -40 -49 -122t-122 -163.5t-208 -81.5q-83 0 -141 38t-87.5 98t-29.5 124zM201 244q0 -39 24.5 -77t75.5 -38q53 0 98.5 35t75 81t29.5 66q0 17 -29 28t-49 43.5 t-20 127.5q-99 -46 -152 -133t-53 -133zM233 820q0 16 13 49q22 25 73 77.5t116 103t110 50.5q36 0 55 -24q16 -22 38.5 -79t42 -116.5t19.5 -63.5q0 -17 -11.5 -28.5t-26.5 -11.5q-56 0 -164 145q-155 -141 -222 -141q-18 0 -30.5 11.5t-12.5 27.5z" />
<glyph unicode="&#xf5;" d="M43 231q0 135 72 235.5t169.5 155t157.5 54.5q118 0 173.5 -64.5t60.5 -119.5h110l-43 -154h-63q-11 -40 -49 -122t-122 -163.5t-208 -81.5q-83 0 -141 38t-87.5 98t-29.5 124zM160 776q0 27 32 74.5t91 85t139 37.5q43 0 116 -32t87 -32q16 0 58 26.5t54 26.5 q35 0 35 -39q0 -40 -26 -79.5t-68 -65t-84 -25.5q-25 0 -71.5 19.5l-93 39t-71.5 19.5q-29 0 -45 -11t-58.5 -42t-61.5 -31q-33 0 -33 29zM201 244q0 -39 24.5 -77t75.5 -38q53 0 98.5 35t75 81t29.5 66q0 17 -29 28t-49 43.5t-20 127.5q-99 -46 -152 -133t-53 -133z" />
<glyph unicode="&#xf6;" d="M43 231q0 135 72 235.5t169.5 155t157.5 54.5q118 0 173.5 -64.5t60.5 -119.5h110l-43 -154h-63q-11 -40 -49 -122t-122 -163.5t-208 -81.5q-83 0 -141 38t-87.5 98t-29.5 124zM201 244q0 -39 24.5 -77t75.5 -38q53 0 98.5 35t75 81t29.5 66q0 17 -29 28t-49 43.5 t-20 127.5q-99 -46 -152 -133t-53 -133zM202 819q0 8 4.5 18.5t12 23.5t10.5 20q13 23 41.5 36t60.5 13q33 0 54.5 -12.5t21.5 -34.5q0 -21 -30 -68t-68 -47q-62 0 -84.5 8t-22.5 43zM485 805q0 11 4.5 22t13 25t11.5 20q10 21 34.5 37.5t47.5 16.5q51 0 75.5 -8t24.5 -42 q0 -22 -29.5 -65t-81.5 -43q-55 0 -77.5 5.5t-22.5 31.5z" />
<glyph unicode="&#xf8;" d="M10 -41l88 107q-55 70 -55 165q0 135 72 235.5t169.5 155t157.5 54.5q78 0 127 -31l41 49l117 2q-4 -14 -86 -116q29 -41 35 -88h110l-43 -154h-63q-11 -40 -49 -122t-122 -163.5t-208 -81.5q-72 0 -137 35q-15 -17 -24.5 -28t-12 -14t-4.5 -5h-113zM201 244q0 -22 8 -43 l201 245q-4 38 -4 64q-99 -46 -152 -133t-53 -133zM270 133q18 -4 31 -4q53 0 98.5 35t75 81t29.5 66q0 16 -24 25.5t-29 13.5q-78 -95 -181 -217z" />
<glyph unicode="&#xf9;" horiz-adv-x="797" d="M29 121q0 27 70 206t116 291l184 31l-178 -436q-4 0 -4 -16q0 -21 25 -21q68 0 138 100.5t114.5 203.5t62.5 153l191 -25q-20 -38 -62.5 -122.5t-79.5 -161.5t-37 -86q0 -46 18.5 -65.5t52.5 -23.5t108 -4l-50 -145h-170q-43 1 -62.5 14.5t-40 39t-36.5 30.5 q-19 -9 -49 -35t-65.5 -39.5t-98.5 -13.5q-147 0 -147 125zM158 1029q0 45 75 45q35 0 57.5 -5t45 -23t59 -68.5t74.5 -120.5q31 -56 31 -72t-13 -26.5t-28 -10.5q-18 0 -95 58.5t-141.5 125.5t-64.5 97z" />
<glyph unicode="&#xfa;" horiz-adv-x="797" d="M29 121q0 27 70 206t116 291l184 31l-178 -436q-4 0 -4 -16q0 -21 25 -21q68 0 138 100.5t114.5 203.5t62.5 153l191 -25q-20 -38 -62.5 -122.5t-79.5 -161.5t-37 -86q0 -46 18.5 -65.5t52.5 -23.5t108 -4l-50 -145h-170q-43 1 -62.5 14.5t-40 39t-36.5 30.5 q-19 -9 -49 -35t-65.5 -39.5t-98.5 -13.5q-147 0 -147 125zM450 791q0 19 31 72q61 107 98.5 151.5t64.5 55t72 10.5q76 0 76 -45q0 -30 -64.5 -97t-141.5 -125.5t-95 -58.5q-15 0 -28 10.5t-13 26.5z" />
<glyph unicode="&#xfb;" horiz-adv-x="797" d="M29 121q0 27 70 206t116 291l184 31l-178 -436q-4 0 -4 -16q0 -21 25 -21q68 0 138 100.5t114.5 203.5t62.5 153l191 -25q-20 -38 -62.5 -122.5t-79.5 -161.5t-37 -86q0 -46 18.5 -65.5t52.5 -23.5t108 -4l-50 -145h-170q-43 1 -62.5 14.5t-40 39t-36.5 30.5 q-19 -9 -49 -35t-65.5 -39.5t-98.5 -13.5q-147 0 -147 125zM253 799q0 16 13 49q22 25 73 77.5t116 103t110 50.5q36 0 55 -24q16 -22 38.5 -79t42 -116.5t19.5 -63.5q0 -17 -11.5 -28.5t-26.5 -11.5q-56 0 -164 145q-155 -141 -222 -141q-18 0 -30.5 11.5t-12.5 27.5z" />
<glyph unicode="&#xfc;" horiz-adv-x="797" d="M29 121q0 27 70 206t116 291l184 31l-178 -436q-4 0 -4 -16q0 -21 25 -21q68 0 138 100.5t114.5 203.5t62.5 153l191 -25q-20 -38 -62.5 -122.5t-79.5 -161.5t-37 -86q0 -46 18.5 -65.5t52.5 -23.5t108 -4l-50 -145h-170q-43 1 -62.5 14.5t-40 39t-36.5 30.5 q-19 -9 -49 -35t-65.5 -39.5t-98.5 -13.5q-147 0 -147 125zM233 799q0 8 4.5 18.5t12 23.5t10.5 20q13 23 41.5 36t60.5 13q33 0 54.5 -12.5t21.5 -34.5q0 -21 -30 -68t-68 -47q-62 0 -84.5 8t-22.5 43zM516 785q0 11 4.5 22t13 25t11.5 20q10 21 34.5 37.5t47.5 16.5 q51 0 75.5 -8t24.5 -42q0 -22 -29.5 -65t-81.5 -43q-55 0 -77.5 5.5t-22.5 31.5z" />
<glyph unicode="&#xfd;" d="M-47 -662l88 183q27 0 71 26.5t95.5 89t97.5 166.5t74 256q-19 0 -43.5 -22t-58.5 -35.5t-111 -13.5q-74 0 -96.5 40.5t-22.5 100.5q0 96 53 221t88 189l211 92l-172 -422q0 -21 7.5 -30t27.5 -9q42 0 112.5 83t131 188.5t63.5 142.5l242 67q-48 -89 -125 -230.5 t-98 -174.5q-76 -434 -232 -671t-403 -237zM450 754q0 19 31 72q61 107 98.5 151.5t64.5 55t72 10.5q76 0 76 -45q0 -30 -64.5 -97t-141.5 -125.5t-95 -58.5q-15 0 -28 10.5t-13 26.5z" />
<glyph unicode="&#xff;" d="M-47 -662l88 183q27 0 71 26.5t95.5 89t97.5 166.5t74 256q-19 0 -43.5 -22t-58.5 -35.5t-111 -13.5q-74 0 -96.5 40.5t-22.5 100.5q0 96 53 221t88 189l211 92l-172 -422q0 -21 7.5 -30t27.5 -9q42 0 112.5 83t131 188.5t63.5 142.5l242 67q-48 -89 -125 -230.5 t-98 -174.5q-76 -434 -232 -671t-403 -237zM274 788q0 8 4.5 18.5t12 23.5t10.5 20q13 23 41.5 36t60.5 13q33 0 54.5 -12.5t21.5 -34.5q0 -21 -30 -68t-68 -47q-62 0 -84.5 8t-22.5 43zM557 774q0 11 4.5 22t13 25t11.5 20q10 21 34.5 37.5t47.5 16.5q51 0 75.5 -8 t24.5 -42q0 -22 -29.5 -65t-81.5 -43q-55 0 -77.5 5.5t-22.5 31.5z" />
<glyph unicode="&#x178;" horiz-adv-x="1374" d="M35 193q0 75 48.5 209t163.5 427.5t115 329.5q0 55 -45 55h-172l68 185h184q74 0 130.5 -33t56.5 -123q0 -54 -46.5 -193t-105.5 -290t-122.5 -316t-63.5 -194q0 -57 59 -57q68 0 181 102t215.5 239t138.5 224q38 92 87.5 227t83.5 210t83 142l301 105 q-15 -59 -66.5 -167.5t-126.5 -243.5t-147 -259q-31 -51 -48.5 -98t-31 -96t-24 -95t-19.5 -75q-46 -137 -98.5 -270.5t-157.5 -330.5t-258 -425h-221q37 61 102 165.5t133.5 221.5t128 235t76.5 184q-24 -23 -80 -69.5t-135.5 -92.5t-145.5 -46q-115 0 -178 62t-63 151z M622 1495q0 8 4.5 18.5t12 23.5t10.5 20q13 23 41.5 36t60.5 13q33 0 54.5 -12.5t21.5 -34.5q0 -21 -30 -68t-68 -47q-62 0 -84.5 8t-22.5 43zM905 1481q0 11 4.5 22t13 25t11.5 20q10 21 34.5 37.5t47.5 16.5q51 0 75.5 -8t24.5 -42q0 -22 -29.5 -65t-81.5 -43 q-55 0 -77.5 5.5t-22.5 31.5z" />
<glyph unicode="&#x2c6;" horiz-adv-x="754" d="M233 1004q0 16 13 49q22 25 73 77.5t116 103t110 50.5q36 0 55 -24q16 -22 38.5 -79t42 -116.5t19.5 -63.5q0 -17 -11.5 -28.5t-26.5 -11.5q-56 0 -164 145q-155 -141 -222 -141q-18 0 -30.5 11.5t-12.5 27.5z" />
<glyph unicode="&#x2dc;" horiz-adv-x="913" d="M160 1063q0 27 32 74.5t91 85t139 37.5q43 0 116 -32t87 -32q16 0 58 26.5t54 26.5q35 0 35 -39q0 -40 -26 -79.5t-68 -65t-84 -25.5q-25 0 -71.5 19.5l-93 39t-71.5 19.5q-29 0 -45 -11t-58.5 -42t-61.5 -31q-33 0 -33 29z" />
<glyph unicode="&#x2000;" horiz-adv-x="919" />
<glyph unicode="&#x2001;" horiz-adv-x="1839" />
<glyph unicode="&#x2002;" horiz-adv-x="919" />
<glyph unicode="&#x2003;" horiz-adv-x="1839" />
<glyph unicode="&#x2004;" horiz-adv-x="613" />
<glyph unicode="&#x2005;" horiz-adv-x="459" />
<glyph unicode="&#x2006;" horiz-adv-x="306" />
<glyph unicode="&#x2007;" horiz-adv-x="306" />
<glyph unicode="&#x2008;" horiz-adv-x="229" />
<glyph unicode="&#x2009;" horiz-adv-x="367" />
<glyph unicode="&#x200a;" horiz-adv-x="102" />
<glyph unicode="&#x2010;" horiz-adv-x="678" d="M98 489l62 154h434l-74 -149z" />
<glyph unicode="&#x2011;" horiz-adv-x="678" d="M98 489l62 154h434l-74 -149z" />
<glyph unicode="&#x2012;" horiz-adv-x="678" d="M98 489l62 154h434l-74 -149z" />
<glyph unicode="&#x2013;" horiz-adv-x="1206" d="M98 489l128 154h896l-153 -149z" />
<glyph unicode="&#x2014;" horiz-adv-x="2230" d="M98 489l256 154h1792l-306 -149z" />
<glyph unicode="&#x2018;" horiz-adv-x="575" d="M223 1192l150 213h98l-61 -117h18l-57 -96h-148z" />
<glyph unicode="&#x2019;" horiz-adv-x="575" d="M289 1188l61 117h-18l57 96h148l-152 -213h-96z" />
<glyph unicode="&#x201c;" d="M223 1192l150 213h98l-61 -117h18l-57 -96h-148zM475 1190l150 215h98l-61 -117h18l-57 -98h-148z" />
<glyph unicode="&#x201d;" d="M289 1188l61 117h-18l57 96h148l-152 -213h-96zM526 1186l62 117h-19l56 96h147l-149 -213h-97z" />
<glyph unicode="&#x202f;" horiz-adv-x="367" />
<glyph unicode="&#x205f;" horiz-adv-x="459" />
<glyph unicode="&#xe000;" horiz-adv-x="680" d="M0 0v680h680v-680h-680z" />
</font>
</defs>
</svg>
